<svg id="visual" viewBox="0 0 900 600" width="100%" height="100%" xmlns="http://www.w3.org/2000/svg" xmlns:xlink="http://www.w3.org/1999/xlink" version="1.1"><g><g transform="translate(349 102)"><path d="M0 -13.1L11.4 -6.6L11.4 6.6L0 13.1L-11.4 6.6L-11.4 -6.6Z" fill="none" stroke="#1f252e" stroke-width="2"></path></g><g transform="translate(282 291)"><path d="M0 -10L8.7 -5L8.7 5L0 10L-8.7 5L-8.7 -5Z" fill="none" stroke="#1f252e" stroke-width="2"></path></g><g transform="translate(368 571)"><path d="M0 -6L5.2 -3L5.2 3L0 6L-5.2 3L-5.2 -3Z" fill="none" stroke="#1f252e" stroke-width="2"></path></g><g transform="translate(510 260)"><path d="M0 -7L6.1 -3.5L6.1 3.5L0 7L-6.1 3.5L-6.1 -3.5Z" fill="none" stroke="#1f252e" stroke-width="2"></path></g><g transform="translate(97 499)"><path d="M0 -12L10.4 -6L10.4 6L0 12L-10.4 6L-10.4 -6Z" fill="none" stroke="#1f252e" stroke-width="2"></path></g><g transform="translate(425 542)"><path d="M0 -3L2.6 -1.5L2.6 1.5L0 3L-2.6 1.5L-2.6 -1.5Z" fill="none" stroke="#1f252e" stroke-width="2"></path></g><g transform="translate(272 428)"><path d="M0 -10L8.7 -5L8.7 5L0 10L-8.7 5L-8.7 -5Z" fill="none" stroke="#1f252e" stroke-width="2"></path></g><g transform="translate(485 389)"><path d="M0 -5L4.3 -2.5L4.3 2.5L0 5L-4.3 2.5L-4.3 -2.5Z" fill="none" stroke="#1f252e" stroke-width="2"></path></g><g transform="translate(248 242)"><path d="M0 -3L2.6 -1.5L2.6 1.5L0 3L-2.6 1.5L-2.6 -1.5Z" fill="none" stroke="#1f252e" stroke-width="2"></path></g><g transform="translate(893 459)"><path d="M0 -3L2.6 -1.5L2.6 1.5L0 3L-2.6 1.5L-2.6 -1.5Z" fill="none" stroke="#1f252e" stroke-width="2"></path></g><g transform="translate(222 477)"><path d="M0 -6L5.2 -3L5.2 3L0 6L-5.2 3L-5.2 -3Z" fill="none" stroke="#1f252e" stroke-width="2"></path></g><g transform="translate(89 585)"><path d="M0 -6L5.2 -3L5.2 3L0 6L-5.2 3L-5.2 -3Z" fill="none" stroke="#1f252e" stroke-width="2"></path></g><g transform="translate(55 526)"><path d="M0 -10L8.7 -5L8.7 5L0 10L-8.7 5L-8.7 -5Z" fill="none" stroke="#1f252e" stroke-width="2"></path></g><g transform="translate(845 15)"><path d="M0 -1L0.9 -0.5L0.9 0.5L0 1L-0.9 0.5L-0.9 -0.5Z" fill="none" stroke="#1f252e" stroke-width="2"></path></g><g transform="translate(646 358)"><path d="M0 -3L2.6 -1.5L2.6 1.5L0 3L-2.6 1.5L-2.6 -1.5Z" fill="none" stroke="#1f252e" stroke-width="2"></path></g><g transform="translate(635 15)"><path d="M0 -11L9.5 -5.5L9.5 5.5L0 11L-9.5 5.5L-9.5 -5.5Z" fill="none" stroke="#1f252e" stroke-width="2"></path></g><g transform="translate(356 24)"><path d="M0 -4L3.5 -2L3.5 2L0 4L-3.5 2L-3.5 -2Z" fill="none" stroke="#1f252e" stroke-width="2"></path></g><g transform="translate(713 146)"><path d="M0 -3L2.6 -1.5L2.6 1.5L0 3L-2.6 1.5L-2.6 -1.5Z" fill="none" stroke="#1f252e" stroke-width="2"></path></g><g transform="translate(479 55)"><path d="M0 -8L6.9 -4L6.9 4L0 8L-6.9 4L-6.9 -4Z" fill="none" stroke="#1f252e" stroke-width="2"></path></g><g transform="translate(471 498)"><path d="M0 -1L0.9 -0.5L0.9 0.5L0 1L-0.9 0.5L-0.9 -0.5Z" fill="none" stroke="#1f252e" stroke-width="2"></path></g><g transform="translate(574 224)"><path d="M0 -9L7.8 -4.5L7.8 4.5L0 9L-7.8 4.5L-7.8 -4.5Z" fill="none" stroke="#1f252e" stroke-width="2"></path></g><g transform="translate(364 144)"><path d="M0 -2L1.7 -1L1.7 1L0 2L-1.7 1L-1.7 -1Z" fill="none" stroke="#1f252e" stroke-width="2"></path></g><g transform="translate(511 65)"><path d="M0 -10L8.7 -5L8.7 5L0 10L-8.7 5L-8.7 -5Z" fill="none" stroke="#1f252e" stroke-width="2"></path></g><g transform="translate(896 226)"><path d="M0 -6L5.2 -3L5.2 3L0 6L-5.2 3L-5.2 -3Z" fill="none" stroke="#1f252e" stroke-width="2"></path></g><g transform="translate(513 396)"><path d="M0 -9L7.8 -4.5L7.8 4.5L0 9L-7.8 4.5L-7.8 -4.5Z" fill="none" stroke="#1f252e" stroke-width="2"></path></g><g transform="translate(756 206)"><path d="M0 -5L4.3 -2.5L4.3 2.5L0 5L-4.3 2.5L-4.3 -2.5Z" fill="none" stroke="#1f252e" stroke-width="2"></path></g><g transform="translate(50 173)"><path d="M0 -4L3.5 -2L3.5 2L0 4L-3.5 2L-3.5 -2Z" fill="none" stroke="#1f252e" stroke-width="2"></path></g><g transform="translate(763 165)"><path d="M0 -4L3.5 -2L3.5 2L0 4L-3.5 2L-3.5 -2Z" fill="none" stroke="#1f252e" stroke-width="2"></path></g><g transform="translate(700 100)"><path d="M0 -9L7.8 -4.5L7.8 4.5L0 9L-7.8 4.5L-7.8 -4.5Z" fill="none" stroke="#1f252e" stroke-width="2"></path></g><g transform="translate(312 111)"><path d="M0 -5L4.3 -2.5L4.3 2.5L0 5L-4.3 2.5L-4.3 -2.5Z" fill="none" stroke="#1f252e" stroke-width="2"></path></g><g transform="translate(881 299)"><path d="M0 -6L5.2 -3L5.2 3L0 6L-5.2 3L-5.2 -3Z" fill="none" stroke="#1f252e" stroke-width="2"></path></g><g transform="translate(790 588)"><path d="M0 -9L7.8 -4.5L7.8 4.5L0 9L-7.8 4.5L-7.8 -4.5Z" fill="none" stroke="#1f252e" stroke-width="2"></path></g><g transform="translate(643 468)"><path d="M0 -9L7.8 -4.5L7.8 4.5L0 9L-7.8 4.5L-7.8 -4.5Z" fill="none" stroke="#1f252e" stroke-width="2"></path></g><g transform="translate(395 78)"><path d="M0 -8L6.9 -4L6.9 4L0 8L-6.9 4L-6.9 -4Z" fill="none" stroke="#1f252e" stroke-width="2"></path></g><g transform="translate(80 98)"><path d="M0 -9L7.8 -4.5L7.8 4.5L0 9L-7.8 4.5L-7.8 -4.5Z" fill="none" stroke="#1f252e" stroke-width="2"></path></g><g transform="translate(128 444)"><path d="M0 -6L5.2 -3L5.2 3L0 6L-5.2 3L-5.2 -3Z" fill="none" stroke="#1f252e" stroke-width="2"></path></g><g transform="translate(206 513)"><path d="M0 -4L3.5 -2L3.5 2L0 4L-3.5 2L-3.5 -2Z" fill="none" stroke="#1f252e" stroke-width="2"></path></g><g transform="translate(311 538)"><path d="M0 -11L9.5 -5.5L9.5 5.5L0 11L-9.5 5.5L-9.5 -5.5Z" fill="none" stroke="#1f252e" stroke-width="2"></path></g><g transform="translate(683 493)"><path d="M0 -11L9.5 -5.5L9.5 5.5L0 11L-9.5 5.5L-9.5 -5.5Z" fill="none" stroke="#1f252e" stroke-width="2"></path></g><g transform="translate(819 500)"><path d="M0 -4L3.5 -2L3.5 2L0 4L-3.5 2L-3.5 -2Z" fill="none" stroke="#1f252e" stroke-width="2"></path></g><g transform="translate(137 43)"><path d="M0 -7L6.1 -3.5L6.1 3.5L0 7L-6.1 3.5L-6.1 -3.5Z" fill="none" stroke="#1f252e" stroke-width="2"></path></g><g transform="translate(625 274)"><path d="M0 -3L2.6 -1.5L2.6 1.5L0 3L-2.6 1.5L-2.6 -1.5Z" fill="none" stroke="#1f252e" stroke-width="2"></path></g><g transform="translate(75 294)"><path d="M0 -9L7.8 -4.5L7.8 4.5L0 9L-7.8 4.5L-7.8 -4.5Z" fill="none" stroke="#1f252e" stroke-width="2"></path></g><g transform="translate(463 32)"><path d="M0 -6L5.2 -3L5.2 3L0 6L-5.2 3L-5.2 -3Z" fill="none" stroke="#1f252e" stroke-width="2"></path></g><g transform="translate(658 184)"><path d="M0 -8L6.9 -4L6.9 4L0 8L-6.9 4L-6.9 -4Z" fill="none" stroke="#1f252e" stroke-width="2"></path></g><g transform="translate(495 87)"><path d="M0 -3L2.6 -1.5L2.6 1.5L0 3L-2.6 1.5L-2.6 -1.5Z" fill="none" stroke="#1f252e" stroke-width="2"></path></g><g transform="translate(192 448)"><path d="M0 -1L0.9 -0.5L0.9 0.5L0 1L-0.9 0.5L-0.9 -0.5Z" fill="none" stroke="#1f252e" stroke-width="2"></path></g><g transform="translate(58 44)"><path d="M0 -8L6.9 -4L6.9 4L0 8L-6.9 4L-6.9 -4Z" fill="none" stroke="#1f252e" stroke-width="2"></path></g><g transform="translate(561 538)"><path d="M0 -4L3.5 -2L3.5 2L0 4L-3.5 2L-3.5 -2Z" fill="none" stroke="#1f252e" stroke-width="2"></path></g><g transform="translate(417 576)"><path d="M0 -5L4.3 -2.5L4.3 2.5L0 5L-4.3 2.5L-4.3 -2.5Z" fill="none" stroke="#1f252e" stroke-width="2"></path></g><g transform="translate(54 256)"><path d="M0 -10L8.7 -5L8.7 5L0 10L-8.7 5L-8.7 -5Z" fill="none" stroke="#1f252e" stroke-width="2"></path></g><g transform="translate(833 119)"><path d="M0 -9L7.8 -4.5L7.8 4.5L0 9L-7.8 4.5L-7.8 -4.5Z" fill="none" stroke="#1f252e" stroke-width="2"></path></g><g transform="translate(630 536)"><path d="M0 -11L9.5 -5.5L9.5 5.5L0 11L-9.5 5.5L-9.5 -5.5Z" fill="none" stroke="#1f252e" stroke-width="2"></path></g><g transform="translate(753 114)"><path d="M0 -8L6.9 -4L6.9 4L0 8L-6.9 4L-6.9 -4Z" fill="none" stroke="#1f252e" stroke-width="2"></path></g><g transform="translate(167 403)"><path d="M0 -3L2.6 -1.5L2.6 1.5L0 3L-2.6 1.5L-2.6 -1.5Z" fill="none" stroke="#1f252e" stroke-width="2"></path></g><g transform="translate(328 307)"><path d="M0 -10L8.7 -5L8.7 5L0 10L-8.7 5L-8.7 -5Z" fill="none" stroke="#1f252e" stroke-width="2"></path></g><g transform="translate(526 583)"><path d="M0 -5L4.3 -2.5L4.3 2.5L0 5L-4.3 2.5L-4.3 -2.5Z" fill="none" stroke="#1f252e" stroke-width="2"></path></g><g transform="translate(269 138)"><path d="M0 -2L1.7 -1L1.7 1L0 2L-1.7 1L-1.7 -1Z" fill="none" stroke="#1f252e" stroke-width="2"></path></g><g transform="translate(212 362)"><path d="M0 -7L6.1 -3.5L6.1 3.5L0 7L-6.1 3.5L-6.1 -3.5Z" fill="none" stroke="#1f252e" stroke-width="2"></path></g><g transform="translate(401 248)"><path d="M0 -7L6.1 -3.5L6.1 3.5L0 7L-6.1 3.5L-6.1 -3.5Z" fill="none" stroke="#1f252e" stroke-width="2"></path></g><g transform="translate(438 481)"><path d="M0 -8L6.9 -4L6.9 4L0 8L-6.9 4L-6.9 -4Z" fill="none" stroke="#1f252e" stroke-width="2"></path></g><g transform="translate(460 156)"><path d="M0 -10L8.7 -5L8.7 5L0 10L-8.7 5L-8.7 -5Z" fill="none" stroke="#1f252e" stroke-width="2"></path></g><g transform="translate(845 359)"><path d="M0 -12L10.4 -6L10.4 6L0 12L-10.4 6L-10.4 -6Z" fill="none" stroke="#1f252e" stroke-width="2"></path></g><g transform="translate(396 550)"><path d="M0 -7L6.1 -3.5L6.1 3.5L0 7L-6.1 3.5L-6.1 -3.5Z" fill="none" stroke="#1f252e" stroke-width="2"></path></g><g transform="translate(68 131)"><path d="M0 -8L6.9 -4L6.9 4L0 8L-6.9 4L-6.9 -4Z" fill="none" stroke="#1f252e" stroke-width="2"></path></g><g transform="translate(840 72)"><path d="M0 -1L0.9 -0.5L0.9 0.5L0 1L-0.9 0.5L-0.9 -0.5Z" fill="none" stroke="#1f252e" stroke-width="2"></path></g><g transform="translate(608 414)"><path d="M0 -10L8.7 -5L8.7 5L0 10L-8.7 5L-8.7 -5Z" fill="none" stroke="#1f252e" stroke-width="2"></path></g><g transform="translate(205 547)"><path d="M0 -10L8.7 -5L8.7 5L0 10L-8.7 5L-8.7 -5Z" fill="none" stroke="#1f252e" stroke-width="2"></path></g><g transform="translate(578 484)"><path d="M0 -3L2.6 -1.5L2.6 1.5L0 3L-2.6 1.5L-2.6 -1.5Z" fill="none" stroke="#1f252e" stroke-width="2"></path></g><g transform="translate(742 365)"><path d="M0 -6L5.2 -3L5.2 3L0 6L-5.2 3L-5.2 -3Z" fill="none" stroke="#1f252e" stroke-width="2"></path></g><g transform="translate(733 514)"><path d="M0 -3L2.6 -1.5L2.6 1.5L0 3L-2.6 1.5L-2.6 -1.5Z" fill="none" stroke="#1f252e" stroke-width="2"></path></g><g transform="translate(615 117)"><path d="M0 -4L3.5 -2L3.5 2L0 4L-3.5 2L-3.5 -2Z" fill="none" stroke="#1f252e" stroke-width="2"></path></g><g transform="translate(223 154)"><path d="M0 -9L7.8 -4.5L7.8 4.5L0 9L-7.8 4.5L-7.8 -4.5Z" fill="none" stroke="#1f252e" stroke-width="2"></path></g><g transform="translate(889 593)"><path d="M0 -5L4.3 -2.5L4.3 2.5L0 5L-4.3 2.5L-4.3 -2.5Z" fill="none" stroke="#1f252e" stroke-width="2"></path></g><g transform="translate(160 518)"><path d="M0 -2L1.7 -1L1.7 1L0 2L-1.7 1L-1.7 -1Z" fill="none" stroke="#1f252e" stroke-width="2"></path></g><g transform="translate(563 443)"><path d="M0 -7L6.1 -3.5L6.1 3.5L0 7L-6.1 3.5L-6.1 -3.5Z" fill="none" stroke="#1f252e" stroke-width="2"></path></g><g transform="translate(683 29)"><path d="M0 -10L8.7 -5L8.7 5L0 10L-8.7 5L-8.7 -5Z" fill="none" stroke="#1f252e" stroke-width="2"></path></g><g transform="translate(453 561)"><path d="M0 -9L7.8 -4.5L7.8 4.5L0 9L-7.8 4.5L-7.8 -4.5Z" fill="none" stroke="#1f252e" stroke-width="2"></path></g><g transform="translate(512 197)"><path d="M0 -3L2.6 -1.5L2.6 1.5L0 3L-2.6 1.5L-2.6 -1.5Z" fill="none" stroke="#1f252e" stroke-width="2"></path></g><g transform="translate(778 551)"><path d="M0 -12L10.4 -6L10.4 6L0 12L-10.4 6L-10.4 -6Z" fill="none" stroke="#1f252e" stroke-width="2"></path></g><g transform="translate(820 458)"><path d="M0 -10L8.7 -5L8.7 5L0 10L-8.7 5L-8.7 -5Z" fill="none" stroke="#1f252e" stroke-width="2"></path></g><g transform="translate(549 196)"><path d="M0 -5L4.3 -2.5L4.3 2.5L0 5L-4.3 2.5L-4.3 -2.5Z" fill="none" stroke="#1f252e" stroke-width="2"></path></g><g transform="translate(459 323)"><path d="M0 -9L7.8 -4.5L7.8 4.5L0 9L-7.8 4.5L-7.8 -4.5Z" fill="none" stroke="#1f252e" stroke-width="2"></path></g><g transform="translate(409 421)"><path d="M0 -6L5.2 -3L5.2 3L0 6L-5.2 3L-5.2 -3Z" fill="none" stroke="#1f252e" stroke-width="2"></path></g><g transform="translate(647 247)"><path d="M0 -5L4.3 -2.5L4.3 2.5L0 5L-4.3 2.5L-4.3 -2.5Z" fill="none" stroke="#1f252e" stroke-width="2"></path></g><g transform="translate(899 519)"><path d="M0 -2L1.7 -1L1.7 1L0 2L-1.7 1L-1.7 -1Z" fill="none" stroke="#1f252e" stroke-width="2"></path></g><g transform="translate(897 331)"><path d="M0 -1L0.9 -0.5L0.9 0.5L0 1L-0.9 0.5L-0.9 -0.5Z" fill="none" stroke="#1f252e" stroke-width="2"></path></g><g transform="translate(691 320)"><path d="M0 -7L6.1 -3.5L6.1 3.5L0 7L-6.1 3.5L-6.1 -3.5Z" fill="none" stroke="#1f252e" stroke-width="2"></path></g><g transform="translate(212 3)"><path d="M0 -7L6.1 -3.5L6.1 3.5L0 7L-6.1 3.5L-6.1 -3.5Z" fill="none" stroke="#1f252e" stroke-width="2"></path></g><g transform="translate(321 472)"><path d="M0 -7L6.1 -3.5L6.1 3.5L0 7L-6.1 3.5L-6.1 -3.5Z" fill="none" stroke="#1f252e" stroke-width="2"></path></g><g transform="translate(221 209)"><path d="M0 -1L0.9 -0.5L0.9 0.5L0 1L-0.9 0.5L-0.9 -0.5Z" fill="none" stroke="#1f252e" stroke-width="2"></path></g><g transform="translate(408 284)"><path d="M0 -5L4.3 -2.5L4.3 2.5L0 5L-4.3 2.5L-4.3 -2.5Z" fill="none" stroke="#1f252e" stroke-width="2"></path></g><g transform="translate(259 532)"><path d="M0 -8L6.9 -4L6.9 4L0 8L-6.9 4L-6.9 -4Z" fill="none" stroke="#1f252e" stroke-width="2"></path></g><g transform="translate(519 462)"><path d="M0 -1L0.9 -0.5L0.9 0.5L0 1L-0.9 0.5L-0.9 -0.5Z" fill="none" stroke="#1f252e" stroke-width="2"></path></g><g transform="translate(302 452)"><path d="M0 -8L6.9 -4L6.9 4L0 8L-6.9 4L-6.9 -4Z" fill="none" stroke="#1f252e" stroke-width="2"></path></g><g transform="translate(325 184)"><path d="M0 -6L5.2 -3L5.2 3L0 6L-5.2 3L-5.2 -3Z" fill="none" stroke="#1f252e" stroke-width="2"></path></g><g transform="translate(189 96)"><path d="M0 -10L8.7 -5L8.7 5L0 10L-8.7 5L-8.7 -5Z" fill="none" stroke="#1f252e" stroke-width="2"></path></g><g transform="translate(697 450)"><path d="M0 -4L3.5 -2L3.5 2L0 4L-3.5 2L-3.5 -2Z" fill="none" stroke="#1f252e" stroke-width="2"></path></g><g transform="translate(84 10)"><path d="M0 -4L3.5 -2L3.5 2L0 4L-3.5 2L-3.5 -2Z" fill="none" stroke="#1f252e" stroke-width="2"></path></g><g transform="translate(817 176)"><path d="M0 -9L7.8 -4.5L7.8 4.5L0 9L-7.8 4.5L-7.8 -4.5Z" fill="none" stroke="#1f252e" stroke-width="2"></path></g><g transform="translate(377 411)"><path d="M0 -6L5.2 -3L5.2 3L0 6L-5.2 3L-5.2 -3Z" fill="none" stroke="#1f252e" stroke-width="2"></path></g><g transform="translate(30 482)"><path d="M0 -10L8.7 -5L8.7 5L0 10L-8.7 5L-8.7 -5Z" fill="none" stroke="#1f252e" stroke-width="2"></path></g><g transform="translate(313 387)"><path d="M0 -10L8.7 -5L8.7 5L0 10L-8.7 5L-8.7 -5Z" fill="none" stroke="#1f252e" stroke-width="2"></path></g><g transform="translate(554 26)"><path d="M0 -5L4.3 -2.5L4.3 2.5L0 5L-4.3 2.5L-4.3 -2.5Z" fill="none" stroke="#1f252e" stroke-width="2"></path></g><g transform="translate(690 126)"><path d="M0 -12L10.4 -6L10.4 6L0 12L-10.4 6L-10.4 -6Z" fill="none" stroke="#1f252e" stroke-width="2"></path></g><g transform="translate(491 327)"><path d="M0 -7L6.1 -3.5L6.1 3.5L0 7L-6.1 3.5L-6.1 -3.5Z" fill="none" stroke="#1f252e" stroke-width="2"></path></g><g transform="translate(740 183)"><path d="M0 -11L9.5 -5.5L9.5 5.5L0 11L-9.5 5.5L-9.5 -5.5Z" fill="none" stroke="#1f252e" stroke-width="2"></path></g><g transform="translate(784 266)"><path d="M0 -6L5.2 -3L5.2 3L0 6L-5.2 3L-5.2 -3Z" fill="none" stroke="#1f252e" stroke-width="2"></path></g><g transform="translate(470 451)"><path d="M0 -9L7.8 -4.5L7.8 4.5L0 9L-7.8 4.5L-7.8 -4.5Z" fill="none" stroke="#1f252e" stroke-width="2"></path></g><g transform="translate(101 224)"><path d="M0 -8L6.9 -4L6.9 4L0 8L-6.9 4L-6.9 -4Z" fill="none" stroke="#1f252e" stroke-width="2"></path></g><g transform="translate(704 571)"><path d="M0 -2L1.7 -1L1.7 1L0 2L-1.7 1L-1.7 -1Z" fill="none" stroke="#1f252e" stroke-width="2"></path></g><g transform="translate(459 405)"><path d="M0 -1L0.9 -0.5L0.9 0.5L0 1L-0.9 0.5L-0.9 -0.5Z" fill="none" stroke="#1f252e" stroke-width="2"></path></g><g transform="translate(527 363)"><path d="M0 -2L1.7 -1L1.7 1L0 2L-1.7 1L-1.7 -1Z" fill="none" stroke="#1f252e" stroke-width="2"></path></g><g transform="translate(613 159)"><path d="M0 -5L4.3 -2.5L4.3 2.5L0 5L-4.3 2.5L-4.3 -2.5Z" fill="none" stroke="#1f252e" stroke-width="2"></path></g><g transform="translate(156 162)"><path d="M0 -9L7.8 -4.5L7.8 4.5L0 9L-7.8 4.5L-7.8 -4.5Z" fill="none" stroke="#1f252e" stroke-width="2"></path></g><g transform="translate(758 272)"><path d="M0 -1L0.9 -0.5L0.9 0.5L0 1L-0.9 0.5L-0.9 -0.5Z" fill="none" stroke="#1f252e" stroke-width="2"></path></g><g transform="translate(281 91)"><path d="M0 -2L1.7 -1L1.7 1L0 2L-1.7 1L-1.7 -1Z" fill="none" stroke="#1f252e" stroke-width="2"></path></g><g transform="translate(689 519)"><path d="M0 -3L2.6 -1.5L2.6 1.5L0 3L-2.6 1.5L-2.6 -1.5Z" fill="none" stroke="#1f252e" stroke-width="2"></path></g><g transform="translate(589 533)"><path d="M0 -6L5.2 -3L5.2 3L0 6L-5.2 3L-5.2 -3Z" fill="none" stroke="#1f252e" stroke-width="2"></path></g><g transform="translate(381 458)"><path d="M0 -9L7.8 -4.5L7.8 4.5L0 9L-7.8 4.5L-7.8 -4.5Z" fill="none" stroke="#1f252e" stroke-width="2"></path></g><g transform="translate(777 227)"><path d="M0 -5L4.3 -2.5L4.3 2.5L0 5L-4.3 2.5L-4.3 -2.5Z" fill="none" stroke="#1f252e" stroke-width="2"></path></g><g transform="translate(842 430)"><path d="M0 -5L4.3 -2.5L4.3 2.5L0 5L-4.3 2.5L-4.3 -2.5Z" fill="none" stroke="#1f252e" stroke-width="2"></path></g><g transform="translate(615 72)"><path d="M0 -7L6.1 -3.5L6.1 3.5L0 7L-6.1 3.5L-6.1 -3.5Z" fill="none" stroke="#1f252e" stroke-width="2"></path></g><g transform="translate(586 10)"><path d="M0 -11L9.5 -5.5L9.5 5.5L0 11L-9.5 5.5L-9.5 -5.5Z" fill="none" stroke="#1f252e" stroke-width="2"></path></g><g transform="translate(726 40)"><path d="M0 -12L10.4 -6L10.4 6L0 12L-10.4 6L-10.4 -6Z" fill="none" stroke="#1f252e" stroke-width="2"></path></g><g transform="translate(404 503)"><path d="M0 -6L5.2 -3L5.2 3L0 6L-5.2 3L-5.2 -3Z" fill="none" stroke="#1f252e" stroke-width="2"></path></g><g transform="translate(259 468)"><path d="M0 -7L6.1 -3.5L6.1 3.5L0 7L-6.1 3.5L-6.1 -3.5Z" fill="none" stroke="#1f252e" stroke-width="2"></path></g><g transform="translate(605 199)"><path d="M0 -10L8.7 -5L8.7 5L0 10L-8.7 5L-8.7 -5Z" fill="none" stroke="#1f252e" stroke-width="2"></path></g><g transform="translate(660 561)"><path d="M0 -12L10.4 -6L10.4 6L0 12L-10.4 6L-10.4 -6Z" fill="none" stroke="#1f252e" stroke-width="2"></path></g><g transform="translate(670 417)"><path d="M0 -2L1.7 -1L1.7 1L0 2L-1.7 1L-1.7 -1Z" fill="none" stroke="#1f252e" stroke-width="2"></path></g><g transform="translate(8 304)"><path d="M0 -12L10.4 -6L10.4 6L0 12L-10.4 6L-10.4 -6Z" fill="none" stroke="#1f252e" stroke-width="2"></path></g><g transform="translate(18 103)"><path d="M0 -10L8.7 -5L8.7 5L0 10L-8.7 5L-8.7 -5Z" fill="none" stroke="#1f252e" stroke-width="2"></path></g><g transform="translate(513 17)"><path d="M0 -11L9.5 -5.5L9.5 5.5L0 11L-9.5 5.5L-9.5 -5.5Z" fill="none" stroke="#1f252e" stroke-width="2"></path></g><g transform="translate(302 318)"><path d="M0 -5L4.3 -2.5L4.3 2.5L0 5L-4.3 2.5L-4.3 -2.5Z" fill="none" stroke="#1f252e" stroke-width="2"></path></g><g transform="translate(244 127)"><path d="M0 -2L1.7 -1L1.7 1L0 2L-1.7 1L-1.7 -1Z" fill="none" stroke="#1f252e" stroke-width="2"></path></g><g transform="translate(89 534)"><path d="M0 -5L4.3 -2.5L4.3 2.5L0 5L-4.3 2.5L-4.3 -2.5Z" fill="none" stroke="#1f252e" stroke-width="2"></path></g><g transform="translate(392 194)"><path d="M0 -4L3.5 -2L3.5 2L0 4L-3.5 2L-3.5 -2Z" fill="none" stroke="#1f252e" stroke-width="2"></path></g><g transform="translate(753 563)"><path d="M0 -8L6.9 -4L6.9 4L0 8L-6.9 4L-6.9 -4Z" fill="none" stroke="#1f252e" stroke-width="2"></path></g><g transform="translate(650 143)"><path d="M0 -6L5.2 -3L5.2 3L0 6L-5.2 3L-5.2 -3Z" fill="none" stroke="#1f252e" stroke-width="2"></path></g><g transform="translate(770 39)"><path d="M0 -6L5.2 -3L5.2 3L0 6L-5.2 3L-5.2 -3Z" fill="none" stroke="#1f252e" stroke-width="2"></path></g><g transform="translate(389 339)"><path d="M0 -9L7.8 -4.5L7.8 4.5L0 9L-7.8 4.5L-7.8 -4.5Z" fill="none" stroke="#1f252e" stroke-width="2"></path></g><g transform="translate(571 151)"><path d="M0 -7L6.1 -3.5L6.1 3.5L0 7L-6.1 3.5L-6.1 -3.5Z" fill="none" stroke="#1f252e" stroke-width="2"></path></g><g transform="translate(119 382)"><path d="M0 -9L7.8 -4.5L7.8 4.5L0 9L-7.8 4.5L-7.8 -4.5Z" fill="none" stroke="#1f252e" stroke-width="2"></path></g><g transform="translate(716 386)"><path d="M0 -3L2.6 -1.5L2.6 1.5L0 3L-2.6 1.5L-2.6 -1.5Z" fill="none" stroke="#1f252e" stroke-width="2"></path></g><g transform="translate(92 315)"><path d="M0 -4L3.5 -2L3.5 2L0 4L-3.5 2L-3.5 -2Z" fill="none" stroke="#1f252e" stroke-width="2"></path></g><g transform="translate(883 198)"><path d="M0 -6L5.2 -3L5.2 3L0 6L-5.2 3L-5.2 -3Z" fill="none" stroke="#1f252e" stroke-width="2"></path></g><g transform="translate(833 261)"><path d="M0 -7L6.1 -3.5L6.1 3.5L0 7L-6.1 3.5L-6.1 -3.5Z" fill="none" stroke="#1f252e" stroke-width="2"></path></g><g transform="translate(512 152)"><path d="M0 -10L8.7 -5L8.7 5L0 10L-8.7 5L-8.7 -5Z" fill="none" stroke="#1f252e" stroke-width="2"></path></g><g transform="translate(467 93)"><path d="M0 -5L4.3 -2.5L4.3 2.5L0 5L-4.3 2.5L-4.3 -2.5Z" fill="none" stroke="#1f252e" stroke-width="2"></path></g><g transform="translate(133 410)"><path d="M0 -5L4.3 -2.5L4.3 2.5L0 5L-4.3 2.5L-4.3 -2.5Z" fill="none" stroke="#1f252e" stroke-width="2"></path></g><g transform="translate(577 372)"><path d="M0 -6L5.2 -3L5.2 3L0 6L-5.2 3L-5.2 -3Z" fill="none" stroke="#1f252e" stroke-width="2"></path></g><g transform="translate(403 145)"><path d="M0 -4L3.5 -2L3.5 2L0 4L-3.5 2L-3.5 -2Z" fill="none" stroke="#1f252e" stroke-width="2"></path></g><g transform="translate(188 46)"><path d="M0 -8L6.9 -4L6.9 4L0 8L-6.9 4L-6.9 -4Z" fill="none" stroke="#1f252e" stroke-width="2"></path></g><g transform="translate(294 561)"><path d="M0 -11L9.5 -5.5L9.5 5.5L0 11L-9.5 5.5L-9.5 -5.5Z" fill="none" stroke="#1f252e" stroke-width="2"></path></g><g transform="translate(439 343)"><path d="M0 -10L8.7 -5L8.7 5L0 10L-8.7 5L-8.7 -5Z" fill="none" stroke="#1f252e" stroke-width="2"></path></g><g transform="translate(597 253)"><path d="M0 -12L10.4 -6L10.4 6L0 12L-10.4 6L-10.4 -6Z" fill="none" stroke="#1f252e" stroke-width="2"></path></g><g transform="translate(301 204)"><path d="M0 -12L10.4 -6L10.4 6L0 12L-10.4 6L-10.4 -6Z" fill="none" stroke="#1f252e" stroke-width="2"></path></g><g transform="translate(245 77)"><path d="M0 -3L2.6 -1.5L2.6 1.5L0 3L-2.6 1.5L-2.6 -1.5Z" fill="none" stroke="#1f252e" stroke-width="2"></path></g><g transform="translate(148 546)"><path d="M0 -11L9.5 -5.5L9.5 5.5L0 11L-9.5 5.5L-9.5 -5.5Z" fill="none" stroke="#1f252e" stroke-width="2"></path></g><g transform="translate(710 339)"><path d="M0 -4L3.5 -2L3.5 2L0 4L-3.5 2L-3.5 -2Z" fill="none" stroke="#1f252e" stroke-width="2"></path></g><g transform="translate(684 236)"><path d="M0 -4L3.5 -2L3.5 2L0 4L-3.5 2L-3.5 -2Z" fill="none" stroke="#1f252e" stroke-width="2"></path></g><g transform="translate(891 567)"><path d="M0 -1L0.9 -0.5L0.9 0.5L0 1L-0.9 0.5L-0.9 -0.5Z" fill="none" stroke="#1f252e" stroke-width="2"></path></g><g transform="translate(6 398)"><path d="M0 -12L10.4 -6L10.4 6L0 12L-10.4 6L-10.4 -6Z" fill="none" stroke="#1f252e" stroke-width="2"></path></g><g transform="translate(227 564)"><path d="M0 -3L2.6 -1.5L2.6 1.5L0 3L-2.6 1.5L-2.6 -1.5Z" fill="none" stroke="#1f252e" stroke-width="2"></path></g><g transform="translate(577 336)"><path d="M0 -7L6.1 -3.5L6.1 3.5L0 7L-6.1 3.5L-6.1 -3.5Z" fill="none" stroke="#1f252e" stroke-width="2"></path></g><g transform="translate(201 314)"><path d="M0 -10L8.7 -5L8.7 5L0 10L-8.7 5L-8.7 -5Z" fill="none" stroke="#1f252e" stroke-width="2"></path></g><g transform="translate(498 491)"><path d="M0 -2L1.7 -1L1.7 1L0 2L-1.7 1L-1.7 -1Z" fill="none" stroke="#1f252e" stroke-width="2"></path></g><g transform="translate(44 377)"><path d="M0 -3L2.6 -1.5L2.6 1.5L0 3L-2.6 1.5L-2.6 -1.5Z" fill="none" stroke="#1f252e" stroke-width="2"></path></g><g transform="translate(347 401)"><path d="M0 -12L10.4 -6L10.4 6L0 12L-10.4 6L-10.4 -6Z" fill="none" stroke="#1f252e" stroke-width="2"></path></g><g transform="translate(117 119)"><path d="M0 -11L9.5 -5.5L9.5 5.5L0 11L-9.5 5.5L-9.5 -5.5Z" fill="none" stroke="#1f252e" stroke-width="2"></path></g><g transform="translate(222 329)"><path d="M0 -5L4.3 -2.5L4.3 2.5L0 5L-4.3 2.5L-4.3 -2.5Z" fill="none" stroke="#1f252e" stroke-width="2"></path></g><g transform="translate(113 248)"><path d="M0 -10L8.7 -5L8.7 5L0 10L-8.7 5L-8.7 -5Z" fill="none" stroke="#1f252e" stroke-width="2"></path></g><g transform="translate(3 213)"><path d="M0 -7L6.1 -3.5L6.1 3.5L0 7L-6.1 3.5L-6.1 -3.5Z" fill="none" stroke="#1f252e" stroke-width="2"></path></g><g transform="translate(858 314)"><path d="M0 -11L9.5 -5.5L9.5 5.5L0 11L-9.5 5.5L-9.5 -5.5Z" fill="none" stroke="#1f252e" stroke-width="2"></path></g><g transform="translate(870 124)"><path d="M0 -6L5.2 -3L5.2 3L0 6L-5.2 3L-5.2 -3Z" fill="none" stroke="#1f252e" stroke-width="2"></path></g><g transform="translate(228 395)"><path d="M0 -10L8.7 -5L8.7 5L0 10L-8.7 5L-8.7 -5Z" fill="none" stroke="#1f252e" stroke-width="2"></path></g><g transform="translate(300 362)"><path d="M0 -7L6.1 -3.5L6.1 3.5L0 7L-6.1 3.5L-6.1 -3.5Z" fill="none" stroke="#1f252e" stroke-width="2"></path></g><g transform="translate(165 586)"><path d="M0 -9L7.8 -4.5L7.8 4.5L0 9L-7.8 4.5L-7.8 -4.5Z" fill="none" stroke="#1f252e" stroke-width="2"></path></g><g transform="translate(267 579)"><path d="M0 -2L1.7 -1L1.7 1L0 2L-1.7 1L-1.7 -1Z" fill="none" stroke="#1f252e" stroke-width="2"></path></g><g transform="translate(443 262)"><path d="M0 -1L0.9 -0.5L0.9 0.5L0 1L-0.9 0.5L-0.9 -0.5Z" fill="none" stroke="#1f252e" stroke-width="2"></path></g><g transform="translate(200 409)"><path d="M0 -11L9.5 -5.5L9.5 5.5L0 11L-9.5 5.5L-9.5 -5.5Z" fill="none" stroke="#1f252e" stroke-width="2"></path></g><g transform="translate(7 34)"><path d="M0 -4L3.5 -2L3.5 2L0 4L-3.5 2L-3.5 -2Z" fill="none" stroke="#1f252e" stroke-width="2"></path></g><g transform="translate(882 36)"><path d="M0 -5L4.3 -2.5L4.3 2.5L0 5L-4.3 2.5L-4.3 -2.5Z" fill="none" stroke="#1f252e" stroke-width="2"></path></g><g transform="translate(389 112)"><path d="M0 -7L6.1 -3.5L6.1 3.5L0 7L-6.1 3.5L-6.1 -3.5Z" fill="none" stroke="#1f252e" stroke-width="2"></path></g><g transform="translate(2 546)"><path d="M0 -7L6.1 -3.5L6.1 3.5L0 7L-6.1 3.5L-6.1 -3.5Z" fill="none" stroke="#1f252e" stroke-width="2"></path></g><g transform="translate(697 72)"><path d="M0 -8L6.9 -4L6.9 4L0 8L-6.9 4L-6.9 -4Z" fill="none" stroke="#1f252e" stroke-width="2"></path></g><g transform="translate(52 339)"><path d="M0 -4L3.5 -2L3.5 2L0 4L-3.5 2L-3.5 -2Z" fill="none" stroke="#1f252e" stroke-width="2"></path></g><g transform="translate(521 107)"><path d="M0 -3L2.6 -1.5L2.6 1.5L0 3L-2.6 1.5L-2.6 -1.5Z" fill="none" stroke="#1f252e" stroke-width="2"></path></g><g transform="translate(117 534)"><path d="M0 -6L5.2 -3L5.2 3L0 6L-5.2 3L-5.2 -3Z" fill="none" stroke="#1f252e" stroke-width="2"></path></g><g transform="translate(569 274)"><path d="M0 -2L1.7 -1L1.7 1L0 2L-1.7 1L-1.7 -1Z" fill="none" stroke="#1f252e" stroke-width="2"></path></g><g transform="translate(118 75)"><path d="M0 -3L2.6 -1.5L2.6 1.5L0 3L-2.6 1.5L-2.6 -1.5Z" fill="none" stroke="#1f252e" stroke-width="2"></path></g><g transform="translate(544 81)"><path d="M0 -10L8.7 -5L8.7 5L0 10L-8.7 5L-8.7 -5Z" fill="none" stroke="#1f252e" stroke-width="2"></path></g><g transform="translate(33 444)"><path d="M0 -10L8.7 -5L8.7 5L0 10L-8.7 5L-8.7 -5Z" fill="none" stroke="#1f252e" stroke-width="2"></path></g><g transform="translate(315 591)"><path d="M0 -3L2.6 -1.5L2.6 1.5L0 3L-2.6 1.5L-2.6 -1.5Z" fill="none" stroke="#1f252e" stroke-width="2"></path></g><g transform="translate(152 459)"><path d="M0 -4L3.5 -2L3.5 2L0 4L-3.5 2L-3.5 -2Z" fill="none" stroke="#1f252e" stroke-width="2"></path></g><g transform="translate(529 174)"><path d="M0 -1L0.9 -0.5L0.9 0.5L0 1L-0.9 0.5L-0.9 -0.5Z" fill="none" stroke="#1f252e" stroke-width="2"></path></g><g transform="translate(886 261)"><path d="M0 -3L2.6 -1.5L2.6 1.5L0 3L-2.6 1.5L-2.6 -1.5Z" fill="none" stroke="#1f252e" stroke-width="2"></path></g><g transform="translate(590 295)"><path d="M0 -7L6.1 -3.5L6.1 3.5L0 7L-6.1 3.5L-6.1 -3.5Z" fill="none" stroke="#1f252e" stroke-width="2"></path></g><g transform="translate(895 134)"><path d="M0 -7L6.1 -3.5L6.1 3.5L0 7L-6.1 3.5L-6.1 -3.5Z" fill="none" stroke="#1f252e" stroke-width="2"></path></g><g transform="translate(217 79)"><path d="M0 -4L3.5 -2L3.5 2L0 4L-3.5 2L-3.5 -2Z" fill="none" stroke="#1f252e" stroke-width="2"></path></g><g transform="translate(420 457)"><path d="M0 -10L8.7 -5L8.7 5L0 10L-8.7 5L-8.7 -5Z" fill="none" stroke="#1f252e" stroke-width="2"></path></g><g transform="translate(736 237)"><path d="M0 -3L2.6 -1.5L2.6 1.5L0 3L-2.6 1.5L-2.6 -1.5Z" fill="none" stroke="#1f252e" stroke-width="2"></path></g><g transform="translate(680 591)"><path d="M0 -4L3.5 -2L3.5 2L0 4L-3.5 2L-3.5 -2Z" fill="none" stroke="#1f252e" stroke-width="2"></path></g><g transform="translate(371 373)"><path d="M0 -4L3.5 -2L3.5 2L0 4L-3.5 2L-3.5 -2Z" fill="none" stroke="#1f252e" stroke-width="2"></path></g><g transform="translate(641 506)"><path d="M0 -11L9.5 -5.5L9.5 5.5L0 11L-9.5 5.5L-9.5 -5.5Z" fill="none" stroke="#1f252e" stroke-width="2"></path></g><g transform="translate(166 137)"><path d="M0 -11L9.5 -5.5L9.5 5.5L0 11L-9.5 5.5L-9.5 -5.5Z" fill="none" stroke="#1f252e" stroke-width="2"></path></g><g transform="translate(67 416)"><path d="M0 -6L5.2 -3L5.2 3L0 6L-5.2 3L-5.2 -3Z" fill="none" stroke="#1f252e" stroke-width="2"></path></g><g transform="translate(247 9)"><path d="M0 -2L1.7 -1L1.7 1L0 2L-1.7 1L-1.7 -1Z" fill="none" stroke="#1f252e" stroke-width="2"></path></g><g transform="translate(787 103)"><path d="M0 -10L8.7 -5L8.7 5L0 10L-8.7 5L-8.7 -5Z" fill="none" stroke="#1f252e" stroke-width="2"></path></g><g transform="translate(851 470)"><path d="M0 -7L6.1 -3.5L6.1 3.5L0 7L-6.1 3.5L-6.1 -3.5Z" fill="none" stroke="#1f252e" stroke-width="2"></path></g><g transform="translate(355 186)"><path d="M0 -2L1.7 -1L1.7 1L0 2L-1.7 1L-1.7 -1Z" fill="none" stroke="#1f252e" stroke-width="2"></path></g><g transform="translate(850 391)"><path d="M0 -1L0.9 -0.5L0.9 0.5L0 1L-0.9 0.5L-0.9 -0.5Z" fill="none" stroke="#1f252e" stroke-width="2"></path></g><g transform="translate(630 226)"><path d="M0 -2L1.7 -1L1.7 1L0 2L-1.7 1L-1.7 -1Z" fill="none" stroke="#1f252e" stroke-width="2"></path></g><g transform="translate(459 589)"><path d="M0 -1L0.9 -0.5L0.9 0.5L0 1L-0.9 0.5L-0.9 -0.5Z" fill="none" stroke="#1f252e" stroke-width="2"></path></g><g transform="translate(226 436)"><path d="M0 -10L8.7 -5L8.7 5L0 10L-8.7 5L-8.7 -5Z" fill="none" stroke="#1f252e" stroke-width="2"></path></g><g transform="translate(520 287)"><path d="M0 -2L1.7 -1L1.7 1L0 2L-1.7 1L-1.7 -1Z" fill="none" stroke="#1f252e" stroke-width="2"></path></g><g transform="translate(640 42)"><path d="M0 -7L6.1 -3.5L6.1 3.5L0 7L-6.1 3.5L-6.1 -3.5Z" fill="none" stroke="#1f252e" stroke-width="2"></path></g><g transform="translate(416 3)"><path d="M0 -10L8.7 -5L8.7 5L0 10L-8.7 5L-8.7 -5Z" fill="none" stroke="#1f252e" stroke-width="2"></path></g><g transform="translate(546 421)"><path d="M0 -6L5.2 -3L5.2 3L0 6L-5.2 3L-5.2 -3Z" fill="none" stroke="#1f252e" stroke-width="2"></path></g><g transform="translate(44 285)"><path d="M0 -4L3.5 -2L3.5 2L0 4L-3.5 2L-3.5 -2Z" fill="none" stroke="#1f252e" stroke-width="2"></path></g><g transform="translate(853 150)"><path d="M0 -1L0.9 -0.5L0.9 0.5L0 1L-0.9 0.5L-0.9 -0.5Z" fill="none" stroke="#1f252e" stroke-width="2"></path></g><g transform="translate(183 239)"><path d="M0 -12L10.4 -6L10.4 6L0 12L-10.4 6L-10.4 -6Z" fill="none" stroke="#1f252e" stroke-width="2"></path></g><g transform="translate(323 6)"><path d="M0 -12L10.4 -6L10.4 6L0 12L-10.4 6L-10.4 -6Z" fill="none" stroke="#1f252e" stroke-width="2"></path></g><g transform="translate(30 584)"><path d="M0 -10L8.7 -5L8.7 5L0 10L-8.7 5L-8.7 -5Z" fill="none" stroke="#1f252e" stroke-width="2"></path></g><g transform="translate(723 429)"><path d="M0 -4L3.5 -2L3.5 2L0 4L-3.5 2L-3.5 -2Z" fill="none" stroke="#1f252e" stroke-width="2"></path></g><g transform="translate(521 541)"><path d="M0 -3L2.6 -1.5L2.6 1.5L0 3L-2.6 1.5L-2.6 -1.5Z" fill="none" stroke="#1f252e" stroke-width="2"></path></g><g transform="translate(768 75)"><path d="M0 -4L3.5 -2L3.5 2L0 4L-3.5 2L-3.5 -2Z" fill="none" stroke="#1f252e" stroke-width="2"></path></g><g transform="translate(38 86)"><path d="M0 -6L5.2 -3L5.2 3L0 6L-5.2 3L-5.2 -3Z" fill="none" stroke="#1f252e" stroke-width="2"></path></g><g transform="translate(294 53)"><path d="M0 -5L4.3 -2.5L4.3 2.5L0 5L-4.3 2.5L-4.3 -2.5Z" fill="none" stroke="#1f252e" stroke-width="2"></path></g><g transform="translate(797 382)"><path d="M0 -11L9.5 -5.5L9.5 5.5L0 11L-9.5 5.5L-9.5 -5.5Z" fill="none" stroke="#1f252e" stroke-width="2"></path></g><g transform="translate(80 455)"><path d="M0 -1L0.9 -0.5L0.9 0.5L0 1L-0.9 0.5L-0.9 -0.5Z" fill="none" stroke="#1f252e" stroke-width="2"></path></g><g transform="translate(731 67)"><path d="M0 -3L2.6 -1.5L2.6 1.5L0 3L-2.6 1.5L-2.6 -1.5Z" fill="none" stroke="#1f252e" stroke-width="2"></path></g><g transform="translate(126 293)"><path d="M0 -10L8.7 -5L8.7 5L0 10L-8.7 5L-8.7 -5Z" fill="none" stroke="#1f252e" stroke-width="2"></path></g><g transform="translate(223 274)"><path d="M0 -6L5.2 -3L5.2 3L0 6L-5.2 3L-5.2 -3Z" fill="none" stroke="#1f252e" stroke-width="2"></path></g><g transform="translate(706 190)"><path d="M0 -11L9.5 -5.5L9.5 5.5L0 11L-9.5 5.5L-9.5 -5.5Z" fill="none" stroke="#1f252e" stroke-width="2"></path></g><g transform="translate(853 97)"><path d="M0 -10L8.7 -5L8.7 5L0 10L-8.7 5L-8.7 -5Z" fill="none" stroke="#1f252e" stroke-width="2"></path></g><g transform="translate(429 42)"><path d="M0 -3L2.6 -1.5L2.6 1.5L0 3L-2.6 1.5L-2.6 -1.5Z" fill="none" stroke="#1f252e" stroke-width="2"></path></g><g transform="translate(398 311)"><path d="M0 -4L3.5 -2L3.5 2L0 4L-3.5 2L-3.5 -2Z" fill="none" stroke="#1f252e" stroke-width="2"></path></g><g transform="translate(396 45)"><path d="M0 -4L3.5 -2L3.5 2L0 4L-3.5 2L-3.5 -2Z" fill="none" stroke="#1f252e" stroke-width="2"></path></g><g transform="translate(538 52)"><path d="M0 -8L6.9 -4L6.9 4L0 8L-6.9 4L-6.9 -4Z" fill="none" stroke="#1f252e" stroke-width="2"></path></g><g transform="translate(177 191)"><path d="M0 -5L4.3 -2.5L4.3 2.5L0 5L-4.3 2.5L-4.3 -2.5Z" fill="none" stroke="#1f252e" stroke-width="2"></path></g><g transform="translate(28 56)"><path d="M0 -11L9.5 -5.5L9.5 5.5L0 11L-9.5 5.5L-9.5 -5.5Z" fill="none" stroke="#1f252e" stroke-width="2"></path></g><g transform="translate(799 26)"><path d="M0 -10L8.7 -5L8.7 5L0 10L-8.7 5L-8.7 -5Z" fill="none" stroke="#1f252e" stroke-width="2"></path></g><g transform="translate(758 590)"><path d="M0 -2L1.7 -1L1.7 1L0 2L-1.7 1L-1.7 -1Z" fill="none" stroke="#1f252e" stroke-width="2"></path></g><g transform="translate(344 523)"><path d="M0 -2L1.7 -1L1.7 1L0 2L-1.7 1L-1.7 -1Z" fill="none" stroke="#1f252e" stroke-width="2"></path></g><g transform="translate(140 332)"><path d="M0 -6L5.2 -3L5.2 3L0 6L-5.2 3L-5.2 -3Z" fill="none" stroke="#1f252e" stroke-width="2"></path></g><g transform="translate(308 232)"><path d="M0 -1L0.9 -0.5L0.9 0.5L0 1L-0.9 0.5L-0.9 -0.5Z" fill="none" stroke="#1f252e" stroke-width="2"></path></g><g transform="translate(412 354)"><path d="M0 -5L4.3 -2.5L4.3 2.5L0 5L-4.3 2.5L-4.3 -2.5Z" fill="none" stroke="#1f252e" stroke-width="2"></path></g><g transform="translate(775 425)"><path d="M0 -4L3.5 -2L3.5 2L0 4L-3.5 2L-3.5 -2Z" fill="none" stroke="#1f252e" stroke-width="2"></path></g><g transform="translate(671 267)"><path d="M0 -10L8.7 -5L8.7 5L0 10L-8.7 5L-8.7 -5Z" fill="none" stroke="#1f252e" stroke-width="2"></path></g><g transform="translate(122 2)"><path d="M0 -3L2.6 -1.5L2.6 1.5L0 3L-2.6 1.5L-2.6 -1.5Z" fill="none" stroke="#1f252e" stroke-width="2"></path></g><g transform="translate(699 261)"><path d="M0 -7L6.1 -3.5L6.1 3.5L0 7L-6.1 3.5L-6.1 -3.5Z" fill="none" stroke="#1f252e" stroke-width="2"></path></g><g transform="translate(454 199)"><path d="M0 -3L2.6 -1.5L2.6 1.5L0 3L-2.6 1.5L-2.6 -1.5Z" fill="none" stroke="#1f252e" stroke-width="2"></path></g><g transform="translate(592 101)"><path d="M0 -6L5.2 -3L5.2 3L0 6L-5.2 3L-5.2 -3Z" fill="none" stroke="#1f252e" stroke-width="2"></path></g><g transform="translate(564 584)"><path d="M0 -7L6.1 -3.5L6.1 3.5L0 7L-6.1 3.5L-6.1 -3.5Z" fill="none" stroke="#1f252e" stroke-width="2"></path></g><g transform="translate(814 62)"><path d="M0 -3L2.6 -1.5L2.6 1.5L0 3L-2.6 1.5L-2.6 -1.5Z" fill="none" stroke="#1f252e" stroke-width="2"></path></g><g transform="translate(564 57)"><path d="M0 -9L7.8 -4.5L7.8 4.5L0 9L-7.8 4.5L-7.8 -4.5Z" fill="none" stroke="#1f252e" stroke-width="2"></path></g><g transform="translate(334 429)"><path d="M0 -6L5.2 -3L5.2 3L0 6L-5.2 3L-5.2 -3Z" fill="none" stroke="#1f252e" stroke-width="2"></path></g><g transform="translate(552 380)"><path d="M0 -6L5.2 -3L5.2 3L0 6L-5.2 3L-5.2 -3Z" fill="none" stroke="#1f252e" stroke-width="2"></path></g><g transform="translate(100 170)"><path d="M0 -2L1.7 -1L1.7 1L0 2L-1.7 1L-1.7 -1Z" fill="none" stroke="#1f252e" stroke-width="2"></path></g><g transform="translate(614 45)"><path d="M0 -6L5.2 -3L5.2 3L0 6L-5.2 3L-5.2 -3Z" fill="none" stroke="#1f252e" stroke-width="2"></path></g><g transform="translate(829 216)"><path d="M0 -4L3.5 -2L3.5 2L0 4L-3.5 2L-3.5 -2Z" fill="none" stroke="#1f252e" stroke-width="2"></path></g><g transform="translate(256 345)"><path d="M0 -11L9.5 -5.5L9.5 5.5L0 11L-9.5 5.5L-9.5 -5.5Z" fill="none" stroke="#1f252e" stroke-width="2"></path></g><g transform="translate(819 348)"><path d="M0 -9L7.8 -4.5L7.8 4.5L0 9L-7.8 4.5L-7.8 -4.5Z" fill="none" stroke="#1f252e" stroke-width="2"></path></g><g transform="translate(285 480)"><path d="M0 -8L6.9 -4L6.9 4L0 8L-6.9 4L-6.9 -4Z" fill="none" stroke="#1f252e" stroke-width="2"></path></g><g transform="translate(138 581)"><path d="M0 -2L1.7 -1L1.7 1L0 2L-1.7 1L-1.7 -1Z" fill="none" stroke="#1f252e" stroke-width="2"></path></g><g transform="translate(548 333)"><path d="M0 -10L8.7 -5L8.7 5L0 10L-8.7 5L-8.7 -5Z" fill="none" stroke="#1f252e" stroke-width="2"></path></g><g transform="translate(75 210)"><path d="M0 -9L7.8 -4.5L7.8 4.5L0 9L-7.8 4.5L-7.8 -4.5Z" fill="none" stroke="#1f252e" stroke-width="2"></path></g><g transform="translate(873 74)"><path d="M0 -2L1.7 -1L1.7 1L0 2L-1.7 1L-1.7 -1Z" fill="none" stroke="#1f252e" stroke-width="2"></path></g><g transform="translate(552 488)"><path d="M0 -4L3.5 -2L3.5 2L0 4L-3.5 2L-3.5 -2Z" fill="none" stroke="#1f252e" stroke-width="2"></path></g><g transform="translate(254 276)"><path d="M0 -2L1.7 -1L1.7 1L0 2L-1.7 1L-1.7 -1Z" fill="none" stroke="#1f252e" stroke-width="2"></path></g><g transform="translate(726 210)"><path d="M0 -12L10.4 -6L10.4 6L0 12L-10.4 6L-10.4 -6Z" fill="none" stroke="#1f252e" stroke-width="2"></path></g><g transform="translate(124 148)"><path d="M0 -2L1.7 -1L1.7 1L0 2L-1.7 1L-1.7 -1Z" fill="none" stroke="#1f252e" stroke-width="2"></path></g><g transform="translate(805 205)"><path d="M0 -11L9.5 -5.5L9.5 5.5L0 11L-9.5 5.5L-9.5 -5.5Z" fill="none" stroke="#1f252e" stroke-width="2"></path></g><g transform="translate(853 533)"><path d="M0 -7L6.1 -3.5L6.1 3.5L0 7L-6.1 3.5L-6.1 -3.5Z" fill="none" stroke="#1f252e" stroke-width="2"></path></g><g transform="translate(275 234)"><path d="M0 -4L3.5 -2L3.5 2L0 4L-3.5 2L-3.5 -2Z" fill="none" stroke="#1f252e" stroke-width="2"></path></g><g transform="translate(440 129)"><path d="M0 -11L9.5 -5.5L9.5 5.5L0 11L-9.5 5.5L-9.5 -5.5Z" fill="none" stroke="#1f252e" stroke-width="2"></path></g><g transform="translate(594 462)"><path d="M0 -10L8.7 -5L8.7 5L0 10L-8.7 5L-8.7 -5Z" fill="none" stroke="#1f252e" stroke-width="2"></path></g><g transform="translate(103 44)"><path d="M0 -6L5.2 -3L5.2 3L0 6L-5.2 3L-5.2 -3Z" fill="none" stroke="#1f252e" stroke-width="2"></path></g><g transform="translate(339 55)"><path d="M0 -8L6.9 -4L6.9 4L0 8L-6.9 4L-6.9 -4Z" fill="none" stroke="#1f252e" stroke-width="2"></path></g><g transform="translate(786 178)"><path d="M0 -12L10.4 -6L10.4 6L0 12L-10.4 6L-10.4 -6Z" fill="none" stroke="#1f252e" stroke-width="2"></path></g><g transform="translate(768 301)"><path d="M0 -5L4.3 -2.5L4.3 2.5L0 5L-4.3 2.5L-4.3 -2.5Z" fill="none" stroke="#1f252e" stroke-width="2"></path></g><g transform="translate(713 481)"><path d="M0 -11L9.5 -5.5L9.5 5.5L0 11L-9.5 5.5L-9.5 -5.5Z" fill="none" stroke="#1f252e" stroke-width="2"></path></g><g transform="translate(805 233)"><path d="M0 -9L7.8 -4.5L7.8 4.5L0 9L-7.8 4.5L-7.8 -4.5Z" fill="none" stroke="#1f252e" stroke-width="2"></path></g><g transform="translate(784 487)"><path d="M0 -2L1.7 -1L1.7 1L0 2L-1.7 1L-1.7 -1Z" fill="none" stroke="#1f252e" stroke-width="2"></path></g><g transform="translate(138 484)"><path d="M0 -9L7.8 -4.5L7.8 4.5L0 9L-7.8 4.5L-7.8 -4.5Z" fill="none" stroke="#1f252e" stroke-width="2"></path></g><g transform="translate(648 306)"><path d="M0 -8L6.9 -4L6.9 4L0 8L-6.9 4L-6.9 -4Z" fill="none" stroke="#1f252e" stroke-width="2"></path></g><g transform="translate(540 516)"><path d="M0 -12L10.4 -6L10.4 6L0 12L-10.4 6L-10.4 -6Z" fill="none" stroke="#1f252e" stroke-width="2"></path></g><g transform="translate(811 280)"><path d="M0 -11L9.5 -5.5L9.5 5.5L0 11L-9.5 5.5L-9.5 -5.5Z" fill="none" stroke="#1f252e" stroke-width="2"></path></g><g transform="translate(138 269)"><path d="M0 -10L8.7 -5L8.7 5L0 10L-8.7 5L-8.7 -5Z" fill="none" stroke="#1f252e" stroke-width="2"></path></g><g transform="translate(441 229)"><path d="M0 -4L3.5 -2L3.5 2L0 4L-3.5 2L-3.5 -2Z" fill="none" stroke="#1f252e" stroke-width="2"></path></g><g transform="translate(487 137)"><path d="M0 -4L3.5 -2L3.5 2L0 4L-3.5 2L-3.5 -2Z" fill="none" stroke="#1f252e" stroke-width="2"></path></g><g transform="translate(441 101)"><path d="M0 -12L10.4 -6L10.4 6L0 12L-10.4 6L-10.4 -6Z" fill="none" stroke="#1f252e" stroke-width="2"></path></g><g transform="translate(35 21)"><path d="M0 -8L6.9 -4L6.9 4L0 8L-6.9 4L-6.9 -4Z" fill="none" stroke="#1f252e" stroke-width="2"></path></g><g transform="translate(687 393)"><path d="M0 -11L9.5 -5.5L9.5 5.5L0 11L-9.5 5.5L-9.5 -5.5Z" fill="none" stroke="#1f252e" stroke-width="2"></path></g><g transform="translate(167 373)"><path d="M0 -4L3.5 -2L3.5 2L0 4L-3.5 2L-3.5 -2Z" fill="none" stroke="#1f252e" stroke-width="2"></path></g><g transform="translate(813 431)"><path d="M0 -5L4.3 -2.5L4.3 2.5L0 5L-4.3 2.5L-4.3 -2.5Z" fill="none" stroke="#1f252e" stroke-width="2"></path></g><g transform="translate(381 14)"><path d="M0 -5L4.3 -2.5L4.3 2.5L0 5L-4.3 2.5L-4.3 -2.5Z" fill="none" stroke="#1f252e" stroke-width="2"></path></g><g transform="translate(638 399)"><path d="M0 -9L7.8 -4.5L7.8 4.5L0 9L-7.8 4.5L-7.8 -4.5Z" fill="none" stroke="#1f252e" stroke-width="2"></path></g><g transform="translate(255 198)"><path d="M0 -5L4.3 -2.5L4.3 2.5L0 5L-4.3 2.5L-4.3 -2.5Z" fill="none" stroke="#1f252e" stroke-width="2"></path></g><g transform="translate(489 213)"><path d="M0 -5L4.3 -2.5L4.3 2.5L0 5L-4.3 2.5L-4.3 -2.5Z" fill="none" stroke="#1f252e" stroke-width="2"></path></g><g transform="translate(168 491)"><path d="M0 -10L8.7 -5L8.7 5L0 10L-8.7 5L-8.7 -5Z" fill="none" stroke="#1f252e" stroke-width="2"></path></g><g transform="translate(361 490)"><path d="M0 -1L0.9 -0.5L0.9 0.5L0 1L-0.9 0.5L-0.9 -0.5Z" fill="none" stroke="#1f252e" stroke-width="2"></path></g><g transform="translate(489 181)"><path d="M0 -7L6.1 -3.5L6.1 3.5L0 7L-6.1 3.5L-6.1 -3.5Z" fill="none" stroke="#1f252e" stroke-width="2"></path></g><g transform="translate(848 561)"><path d="M0 -6L5.2 -3L5.2 3L0 6L-5.2 3L-5.2 -3Z" fill="none" stroke="#1f252e" stroke-width="2"></path></g><g transform="translate(897 388)"><path d="M0 -1L0.9 -0.5L0.9 0.5L0 1L-0.9 0.5L-0.9 -0.5Z" fill="none" stroke="#1f252e" stroke-width="2"></path></g><g transform="translate(2 145)"><path d="M0 -11L9.5 -5.5L9.5 5.5L0 11L-9.5 5.5L-9.5 -5.5Z" fill="none" stroke="#1f252e" stroke-width="2"></path></g><g transform="translate(617 492)"><path d="M0 -10L8.7 -5L8.7 5L0 10L-8.7 5L-8.7 -5Z" fill="none" stroke="#1f252e" stroke-width="2"></path></g><g transform="translate(692 546)"><path d="M0 -10L8.7 -5L8.7 5L0 10L-8.7 5L-8.7 -5Z" fill="none" stroke="#1f252e" stroke-width="2"></path></g><g transform="translate(254 502)"><path d="M0 -3L2.6 -1.5L2.6 1.5L0 3L-2.6 1.5L-2.6 -1.5Z" fill="none" stroke="#1f252e" stroke-width="2"></path></g><g transform="translate(378 597)"><path d="M0 -10L8.7 -5L8.7 5L0 10L-8.7 5L-8.7 -5Z" fill="none" stroke="#1f252e" stroke-width="2"></path></g><g transform="translate(474 266)"><path d="M0 -3L2.6 -1.5L2.6 1.5L0 3L-2.6 1.5L-2.6 -1.5Z" fill="none" stroke="#1f252e" stroke-width="2"></path></g><g transform="translate(304 27)"><path d="M0 -1L0.9 -0.5L0.9 0.5L0 1L-0.9 0.5L-0.9 -0.5Z" fill="none" stroke="#1f252e" stroke-width="2"></path></g><g transform="translate(772 364)"><path d="M0 -1L0.9 -0.5L0.9 0.5L0 1L-0.9 0.5L-0.9 -0.5Z" fill="none" stroke="#1f252e" stroke-width="2"></path></g><g transform="translate(857 287)"><path d="M0 -12L10.4 -6L10.4 6L0 12L-10.4 6L-10.4 -6Z" fill="none" stroke="#1f252e" stroke-width="2"></path></g><g transform="translate(163 284)"><path d="M0 -11L9.5 -5.5L9.5 5.5L0 11L-9.5 5.5L-9.5 -5.5Z" fill="none" stroke="#1f252e" stroke-width="2"></path></g><g transform="translate(838 596)"><path d="M0 -9L7.8 -4.5L7.8 4.5L0 9L-7.8 4.5L-7.8 -4.5Z" fill="none" stroke="#1f252e" stroke-width="2"></path></g><g transform="translate(340 355)"><path d="M0 -10L8.7 -5L8.7 5L0 10L-8.7 5L-8.7 -5Z" fill="none" stroke="#1f252e" stroke-width="2"></path></g><g transform="translate(675 156)"><path d="M0 -11L9.5 -5.5L9.5 5.5L0 11L-9.5 5.5L-9.5 -5.5Z" fill="none" stroke="#1f252e" stroke-width="2"></path></g><g transform="translate(606 331)"><path d="M0 -2L1.7 -1L1.7 1L0 2L-1.7 1L-1.7 -1Z" fill="none" stroke="#1f252e" stroke-width="2"></path></g><g transform="translate(264 381)"><path d="M0 -10L8.7 -5L8.7 5L0 10L-8.7 5L-8.7 -5Z" fill="none" stroke="#1f252e" stroke-width="2"></path></g><g transform="translate(526 222)"><path d="M0 -2L1.7 -1L1.7 1L0 2L-1.7 1L-1.7 -1Z" fill="none" stroke="#1f252e" stroke-width="2"></path></g><g transform="translate(601 587)"><path d="M0 -3L2.6 -1.5L2.6 1.5L0 3L-2.6 1.5L-2.6 -1.5Z" fill="none" stroke="#1f252e" stroke-width="2"></path></g><g transform="translate(346 230)"><path d="M0 -2L1.7 -1L1.7 1L0 2L-1.7 1L-1.7 -1Z" fill="none" stroke="#1f252e" stroke-width="2"></path></g><g transform="translate(478 545)"><path d="M0 -11L9.5 -5.5L9.5 5.5L0 11L-9.5 5.5L-9.5 -5.5Z" fill="none" stroke="#1f252e" stroke-width="2"></path></g><g transform="translate(487 589)"><path d="M0 -5L4.3 -2.5L4.3 2.5L0 5L-4.3 2.5L-4.3 -2.5Z" fill="none" stroke="#1f252e" stroke-width="2"></path></g><g transform="translate(106 560)"><path d="M0 -3L2.6 -1.5L2.6 1.5L0 3L-2.6 1.5L-2.6 -1.5Z" fill="none" stroke="#1f252e" stroke-width="2"></path></g><g transform="translate(650 86)"><path d="M0 -11L9.5 -5.5L9.5 5.5L0 11L-9.5 5.5L-9.5 -5.5Z" fill="none" stroke="#1f252e" stroke-width="2"></path></g><g transform="translate(737 295)"><path d="M0 -10L8.7 -5L8.7 5L0 10L-8.7 5L-8.7 -5Z" fill="none" stroke="#1f252e" stroke-width="2"></path></g><g transform="translate(571 412)"><path d="M0 -5L4.3 -2.5L4.3 2.5L0 5L-4.3 2.5L-4.3 -2.5Z" fill="none" stroke="#1f252e" stroke-width="2"></path></g><g transform="translate(288 264)"><path d="M0 -2L1.7 -1L1.7 1L0 2L-1.7 1L-1.7 -1Z" fill="none" stroke="#1f252e" stroke-width="2"></path></g><g transform="translate(520 323)"><path d="M0 -12L10.4 -6L10.4 6L0 12L-10.4 6L-10.4 -6Z" fill="none" stroke="#1f252e" stroke-width="2"></path></g><g transform="translate(368 272)"><path d="M0 -8L6.9 -4L6.9 4L0 8L-6.9 4L-6.9 -4Z" fill="none" stroke="#1f252e" stroke-width="2"></path></g><g transform="translate(462 369)"><path d="M0 -7L6.1 -3.5L6.1 3.5L0 7L-6.1 3.5L-6.1 -3.5Z" fill="none" stroke="#1f252e" stroke-width="2"></path></g><g transform="translate(862 177)"><path d="M0 -6L5.2 -3L5.2 3L0 6L-5.2 3L-5.2 -3Z" fill="none" stroke="#1f252e" stroke-width="2"></path></g><g transform="translate(131 223)"><path d="M0 -6L5.2 -3L5.2 3L0 6L-5.2 3L-5.2 -3Z" fill="none" stroke="#1f252e" stroke-width="2"></path></g><g transform="translate(16 521)"><path d="M0 -10L8.7 -5L8.7 5L0 10L-8.7 5L-8.7 -5Z" fill="none" stroke="#1f252e" stroke-width="2"></path></g><g transform="translate(797 318)"><path d="M0 -1L0.9 -0.5L0.9 0.5L0 1L-0.9 0.5L-0.9 -0.5Z" fill="none" stroke="#1f252e" stroke-width="2"></path></g><g transform="translate(268 57)"><path d="M0 -7L6.1 -3.5L6.1 3.5L0 7L-6.1 3.5L-6.1 -3.5Z" fill="none" stroke="#1f252e" stroke-width="2"></path></g><g transform="translate(368 71)"><path d="M0 -5L4.3 -2.5L4.3 2.5L0 5L-4.3 2.5L-4.3 -2.5Z" fill="none" stroke="#1f252e" stroke-width="2"></path></g><g transform="translate(373 220)"><path d="M0 -4L3.5 -2L3.5 2L0 4L-3.5 2L-3.5 -2Z" fill="none" stroke="#1f252e" stroke-width="2"></path></g><g transform="translate(27 197)"><path d="M0 -3L2.6 -1.5L2.6 1.5L0 3L-2.6 1.5L-2.6 -1.5Z" fill="none" stroke="#1f252e" stroke-width="2"></path></g><g transform="translate(185 155)"><path d="M0 -5L4.3 -2.5L4.3 2.5L0 5L-4.3 2.5L-4.3 -2.5Z" fill="none" stroke="#1f252e" stroke-width="2"></path></g><g transform="translate(162 58)"><path d="M0 -8L6.9 -4L6.9 4L0 8L-6.9 4L-6.9 -4Z" fill="none" stroke="#1f252e" stroke-width="2"></path></g><g transform="translate(54 493)"><path d="M0 -6L5.2 -3L5.2 3L0 6L-5.2 3L-5.2 -3Z" fill="none" stroke="#1f252e" stroke-width="2"></path></g><g transform="translate(4 493)"><path d="M0 -4L3.5 -2L3.5 2L0 4L-3.5 2L-3.5 -2Z" fill="none" stroke="#1f252e" stroke-width="2"></path></g><g transform="translate(51 465)"><path d="M0 -10L8.7 -5L8.7 5L0 10L-8.7 5L-8.7 -5Z" fill="none" stroke="#1f252e" stroke-width="2"></path></g><g transform="translate(441 430)"><path d="M0 -5L4.3 -2.5L4.3 2.5L0 5L-4.3 2.5L-4.3 -2.5Z" fill="none" stroke="#1f252e" stroke-width="2"></path></g><g transform="translate(150 107)"><path d="M0 -9L7.8 -4.5L7.8 4.5L0 9L-7.8 4.5L-7.8 -4.5Z" fill="none" stroke="#1f252e" stroke-width="2"></path></g><g transform="translate(896 164)"><path d="M0 -5L4.3 -2.5L4.3 2.5L0 5L-4.3 2.5L-4.3 -2.5Z" fill="none" stroke="#1f252e" stroke-width="2"></path></g><g transform="translate(869 441)"><path d="M0 -6L5.2 -3L5.2 3L0 6L-5.2 3L-5.2 -3Z" fill="none" stroke="#1f252e" stroke-width="2"></path></g><g transform="translate(859 222)"><path d="M0 -6L5.2 -3L5.2 3L0 6L-5.2 3L-5.2 -3Z" fill="none" stroke="#1f252e" stroke-width="2"></path></g><g transform="translate(13 332)"><path d="M0 -11L9.5 -5.5L9.5 5.5L0 11L-9.5 5.5L-9.5 -5.5Z" fill="none" stroke="#1f252e" stroke-width="2"></path></g><g transform="translate(189 15)"><path d="M0 -9L7.8 -4.5L7.8 4.5L0 9L-7.8 4.5L-7.8 -4.5Z" fill="none" stroke="#1f252e" stroke-width="2"></path></g><g transform="translate(373 527)"><path d="M0 -10L8.7 -5L8.7 5L0 10L-8.7 5L-8.7 -5Z" fill="none" stroke="#1f252e" stroke-width="2"></path></g><g transform="translate(433 299)"><path d="M0 -5L4.3 -2.5L4.3 2.5L0 5L-4.3 2.5L-4.3 -2.5Z" fill="none" stroke="#1f252e" stroke-width="2"></path></g><g transform="translate(697 3)"><path d="M0 -6L5.2 -3L5.2 3L0 6L-5.2 3L-5.2 -3Z" fill="none" stroke="#1f252e" stroke-width="2"></path></g><g transform="translate(492 431)"><path d="M0 -2L1.7 -1L1.7 1L0 2L-1.7 1L-1.7 -1Z" fill="none" stroke="#1f252e" stroke-width="2"></path></g><g transform="translate(735 327)"><path d="M0 -10L8.7 -5L8.7 5L0 10L-8.7 5L-8.7 -5Z" fill="none" stroke="#1f252e" stroke-width="2"></path></g><g transform="translate(420 379)"><path d="M0 -12L10.4 -6L10.4 6L0 12L-10.4 6L-10.4 -6Z" fill="none" stroke="#1f252e" stroke-width="2"></path></g><g transform="translate(94 348)"><path d="M0 -12L10.4 -6L10.4 6L0 12L-10.4 6L-10.4 -6Z" fill="none" stroke="#1f252e" stroke-width="2"></path></g><g transform="translate(162 6)"><path d="M0 -12L10.4 -6L10.4 6L0 12L-10.4 6L-10.4 -6Z" fill="none" stroke="#1f252e" stroke-width="2"></path></g><g transform="translate(670 67)"><path d="M0 -3L2.6 -1.5L2.6 1.5L0 3L-2.6 1.5L-2.6 -1.5Z" fill="none" stroke="#1f252e" stroke-width="2"></path></g><g transform="translate(884 2)"><path d="M0 -4L3.5 -2L3.5 2L0 4L-3.5 2L-3.5 -2Z" fill="none" stroke="#1f252e" stroke-width="2"></path></g><g transform="translate(193 214)"><path d="M0 -4L3.5 -2L3.5 2L0 4L-3.5 2L-3.5 -2Z" fill="none" stroke="#1f252e" stroke-width="2"></path></g><g transform="translate(16 168)"><path d="M0 -9L7.8 -4.5L7.8 4.5L0 9L-7.8 4.5L-7.8 -4.5Z" fill="none" stroke="#1f252e" stroke-width="2"></path></g><g transform="translate(176 547)"><path d="M0 -1L0.9 -0.5L0.9 0.5L0 1L-0.9 0.5L-0.9 -0.5Z" fill="none" stroke="#1f252e" stroke-width="2"></path></g><g transform="translate(142 190)"><path d="M0 -1L0.9 -0.5L0.9 0.5L0 1L-0.9 0.5L-0.9 -0.5Z" fill="none" stroke="#1f252e" stroke-width="2"></path></g><g transform="translate(726 97)"><path d="M0 -9L7.8 -4.5L7.8 4.5L0 9L-7.8 4.5L-7.8 -4.5Z" fill="none" stroke="#1f252e" stroke-width="2"></path></g><g transform="translate(661 222)"><path d="M0 -11L9.5 -5.5L9.5 5.5L0 11L-9.5 5.5L-9.5 -5.5Z" fill="none" stroke="#1f252e" stroke-width="2"></path></g><g transform="translate(414 220)"><path d="M0 -1L0.9 -0.5L0.9 0.5L0 1L-0.9 0.5L-0.9 -0.5Z" fill="none" stroke="#1f252e" stroke-width="2"></path></g><g transform="translate(429 192)"><path d="M0 -11L9.5 -5.5L9.5 5.5L0 11L-9.5 5.5L-9.5 -5.5Z" fill="none" stroke="#1f252e" stroke-width="2"></path></g><g transform="translate(748 484)"><path d="M0 -1L0.9 -0.5L0.9 0.5L0 1L-0.9 0.5L-0.9 -0.5Z" fill="none" stroke="#1f252e" stroke-width="2"></path></g><g transform="translate(485 356)"><path d="M0 -6L5.2 -3L5.2 3L0 6L-5.2 3L-5.2 -3Z" fill="none" stroke="#1f252e" stroke-width="2"></path></g><g transform="translate(620 308)"><path d="M0 -6L5.2 -3L5.2 3L0 6L-5.2 3L-5.2 -3Z" fill="none" stroke="#1f252e" stroke-width="2"></path></g><g transform="translate(220 35)"><path d="M0 -10L8.7 -5L8.7 5L0 10L-8.7 5L-8.7 -5Z" fill="none" stroke="#1f252e" stroke-width="2"></path></g><g transform="translate(357 445)"><path d="M0 -11L9.5 -5.5L9.5 5.5L0 11L-9.5 5.5L-9.5 -5.5Z" fill="none" stroke="#1f252e" stroke-width="2"></path></g><g transform="translate(666 107)"><path d="M0 -3L2.6 -1.5L2.6 1.5L0 3L-2.6 1.5L-2.6 -1.5Z" fill="none" stroke="#1f252e" stroke-width="2"></path></g><g transform="translate(458 524)"><path d="M0 -5L4.3 -2.5L4.3 2.5L0 5L-4.3 2.5L-4.3 -2.5Z" fill="none" stroke="#1f252e" stroke-width="2"></path></g><g transform="translate(774 518)"><path d="M0 -2L1.7 -1L1.7 1L0 2L-1.7 1L-1.7 -1Z" fill="none" stroke="#1f252e" stroke-width="2"></path></g><g transform="translate(733 455)"><path d="M0 -9L7.8 -4.5L7.8 4.5L0 9L-7.8 4.5L-7.8 -4.5Z" fill="none" stroke="#1f252e" stroke-width="2"></path></g><g transform="translate(553 106)"><path d="M0 -6L5.2 -3L5.2 3L0 6L-5.2 3L-5.2 -3Z" fill="none" stroke="#1f252e" stroke-width="2"></path></g><g transform="translate(204 135)"><path d="M0 -10L8.7 -5L8.7 5L0 10L-8.7 5L-8.7 -5Z" fill="none" stroke="#1f252e" stroke-width="2"></path></g><g transform="translate(215 588)"><path d="M0 -8L6.9 -4L6.9 4L0 8L-6.9 4L-6.9 -4Z" fill="none" stroke="#1f252e" stroke-width="2"></path></g><g transform="translate(652 589)"><path d="M0 -7L6.1 -3.5L6.1 3.5L0 7L-6.1 3.5L-6.1 -3.5Z" fill="none" stroke="#1f252e" stroke-width="2"></path></g><g transform="translate(356 308)"><path d="M0 -4L3.5 -2L3.5 2L0 4L-3.5 2L-3.5 -2Z" fill="none" stroke="#1f252e" stroke-width="2"></path></g><g transform="translate(331 556)"><path d="M0 -2L1.7 -1L1.7 1L0 2L-1.7 1L-1.7 -1Z" fill="none" stroke="#1f252e" stroke-width="2"></path></g><g transform="translate(820 549)"><path d="M0 -10L8.7 -5L8.7 5L0 10L-8.7 5L-8.7 -5Z" fill="none" stroke="#1f252e" stroke-width="2"></path></g><g transform="translate(266 172)"><path d="M0 -11L9.5 -5.5L9.5 5.5L0 11L-9.5 5.5L-9.5 -5.5Z" fill="none" stroke="#1f252e" stroke-width="2"></path></g><g transform="translate(790 344)"><path d="M0 -3L2.6 -1.5L2.6 1.5L0 3L-2.6 1.5L-2.6 -1.5Z" fill="none" stroke="#1f252e" stroke-width="2"></path></g><g transform="translate(888 96)"><path d="M0 -10L8.7 -5L8.7 5L0 10L-8.7 5L-8.7 -5Z" fill="none" stroke="#1f252e" stroke-width="2"></path></g><g transform="translate(316 506)"><path d="M0 -4L3.5 -2L3.5 2L0 4L-3.5 2L-3.5 -2Z" fill="none" stroke="#1f252e" stroke-width="2"></path></g><g transform="translate(1 460)"><path d="M0 -12L10.4 -6L10.4 6L0 12L-10.4 6L-10.4 -6Z" fill="none" stroke="#1f252e" stroke-width="2"></path></g><g transform="translate(34 414)"><path d="M0 -10L8.7 -5L8.7 5L0 10L-8.7 5L-8.7 -5Z" fill="none" stroke="#1f252e" stroke-width="2"></path></g><g transform="translate(91 400)"><path d="M0 -11L9.5 -5.5L9.5 5.5L0 11L-9.5 5.5L-9.5 -5.5Z" fill="none" stroke="#1f252e" stroke-width="2"></path></g><g transform="translate(792 141)"><path d="M0 -8L6.9 -4L6.9 4L0 8L-6.9 4L-6.9 -4Z" fill="none" stroke="#1f252e" stroke-width="2"></path></g><g transform="translate(155 248)"><path d="M0 -10L8.7 -5L8.7 5L0 10L-8.7 5L-8.7 -5Z" fill="none" stroke="#1f252e" stroke-width="2"></path></g><g transform="translate(332 132)"><path d="M0 -5L4.3 -2.5L4.3 2.5L0 5L-4.3 2.5L-4.3 -2.5Z" fill="none" stroke="#1f252e" stroke-width="2"></path></g><g transform="translate(756 1)"><path d="M0 -6L5.2 -3L5.2 3L0 6L-5.2 3L-5.2 -3Z" fill="none" stroke="#1f252e" stroke-width="2"></path></g><g transform="translate(728 2)"><path d="M0 -6L5.2 -3L5.2 3L0 6L-5.2 3L-5.2 -3Z" fill="none" stroke="#1f252e" stroke-width="2"></path></g><g transform="translate(824 398)"><path d="M0 -3L2.6 -1.5L2.6 1.5L0 3L-2.6 1.5L-2.6 -1.5Z" fill="none" stroke="#1f252e" stroke-width="2"></path></g><g transform="translate(658 441)"><path d="M0 -3L2.6 -1.5L2.6 1.5L0 3L-2.6 1.5L-2.6 -1.5Z" fill="none" stroke="#1f252e" stroke-width="2"></path></g><g transform="translate(8 278)"><path d="M0 -8L6.9 -4L6.9 4L0 8L-6.9 4L-6.9 -4Z" fill="none" stroke="#1f252e" stroke-width="2"></path></g><g transform="translate(655 332)"><path d="M0 -3L2.6 -1.5L2.6 1.5L0 3L-2.6 1.5L-2.6 -1.5Z" fill="none" stroke="#1f252e" stroke-width="2"></path></g><g transform="translate(64 74)"><path d="M0 -7L6.1 -3.5L6.1 3.5L0 7L-6.1 3.5L-6.1 -3.5Z" fill="none" stroke="#1f252e" stroke-width="2"></path></g><g transform="translate(34 231)"><path d="M0 -3L2.6 -1.5L2.6 1.5L0 3L-2.6 1.5L-2.6 -1.5Z" fill="none" stroke="#1f252e" stroke-width="2"></path></g><g transform="translate(326 272)"><path d="M0 -6L5.2 -3L5.2 3L0 6L-5.2 3L-5.2 -3Z" fill="none" stroke="#1f252e" stroke-width="2"></path></g><g transform="translate(426 162)"><path d="M0 -3L2.6 -1.5L2.6 1.5L0 3L-2.6 1.5L-2.6 -1.5Z" fill="none" stroke="#1f252e" stroke-width="2"></path></g><g transform="translate(442 15)"><path d="M0 -4L3.5 -2L3.5 2L0 4L-3.5 2L-3.5 -2Z" fill="none" stroke="#1f252e" stroke-width="2"></path></g><g transform="translate(291 405)"><path d="M0 -7L6.1 -3.5L6.1 3.5L0 7L-6.1 3.5L-6.1 -3.5Z" fill="none" stroke="#1f252e" stroke-width="2"></path></g><g transform="translate(59 593)"><path d="M0 -12L10.4 -6L10.4 6L0 12L-10.4 6L-10.4 -6Z" fill="none" stroke="#1f252e" stroke-width="2"></path></g><g transform="translate(743 396)"><path d="M0 -1L0.9 -0.5L0.9 0.5L0 1L-0.9 0.5L-0.9 -0.5Z" fill="none" stroke="#1f252e" stroke-width="2"></path></g><g transform="translate(630 568)"><path d="M0 -2L1.7 -1L1.7 1L0 2L-1.7 1L-1.7 -1Z" fill="none" stroke="#1f252e" stroke-width="2"></path></g><g transform="translate(252 412)"><path d="M0 -4L3.5 -2L3.5 2L0 4L-3.5 2L-3.5 -2Z" fill="none" stroke="#1f252e" stroke-width="2"></path></g><g transform="translate(793 456)"><path d="M0 -12L10.4 -6L10.4 6L0 12L-10.4 6L-10.4 -6Z" fill="none" stroke="#1f252e" stroke-width="2"></path></g><g transform="translate(603 361)"><path d="M0 -9L7.8 -4.5L7.8 4.5L0 9L-7.8 4.5L-7.8 -4.5Z" fill="none" stroke="#1f252e" stroke-width="2"></path></g><g transform="translate(539 253)"><path d="M0 -11L9.5 -5.5L9.5 5.5L0 11L-9.5 5.5L-9.5 -5.5Z" fill="none" stroke="#1f252e" stroke-width="2"></path></g><g transform="translate(294 153)"><path d="M0 -12L10.4 -6L10.4 6L0 12L-10.4 6L-10.4 -6Z" fill="none" stroke="#1f252e" stroke-width="2"></path></g><g transform="translate(719 540)"><path d="M0 -10L8.7 -5L8.7 5L0 10L-8.7 5L-8.7 -5Z" fill="none" stroke="#1f252e" stroke-width="2"></path></g><g transform="translate(872 510)"><path d="M0 -11L9.5 -5.5L9.5 5.5L0 11L-9.5 5.5L-9.5 -5.5Z" fill="none" stroke="#1f252e" stroke-width="2"></path></g><g transform="translate(429 72)"><path d="M0 -11L9.5 -5.5L9.5 5.5L0 11L-9.5 5.5L-9.5 -5.5Z" fill="none" stroke="#1f252e" stroke-width="2"></path></g><g transform="translate(230 102)"><path d="M0 -7L6.1 -3.5L6.1 3.5L0 7L-6.1 3.5L-6.1 -3.5Z" fill="none" stroke="#1f252e" stroke-width="2"></path></g><g transform="translate(683 349)"><path d="M0 -4L3.5 -2L3.5 2L0 4L-3.5 2L-3.5 -2Z" fill="none" stroke="#1f252e" stroke-width="2"></path></g><g transform="translate(277 22)"><path d="M0 -3L2.6 -1.5L2.6 1.5L0 3L-2.6 1.5L-2.6 -1.5Z" fill="none" stroke="#1f252e" stroke-width="2"></path></g><g transform="translate(36 313)"><path d="M0 -8L6.9 -4L6.9 4L0 8L-6.9 4L-6.9 -4Z" fill="none" stroke="#1f252e" stroke-width="2"></path></g><g transform="translate(479 5)"><path d="M0 -3L2.6 -1.5L2.6 1.5L0 3L-2.6 1.5L-2.6 -1.5Z" fill="none" stroke="#1f252e" stroke-width="2"></path></g><g transform="translate(5 574)"><path d="M0 -12L10.4 -6L10.4 6L0 12L-10.4 6L-10.4 -6Z" fill="none" stroke="#1f252e" stroke-width="2"></path></g><g transform="translate(760 456)"><path d="M0 -7L6.1 -3.5L6.1 3.5L0 7L-6.1 3.5L-6.1 -3.5Z" fill="none" stroke="#1f252e" stroke-width="2"></path></g><g transform="translate(669 465)"><path d="M0 -6L5.2 -3L5.2 3L0 6L-5.2 3L-5.2 -3Z" fill="none" stroke="#1f252e" stroke-width="2"></path></g><g transform="translate(97 277)"><path d="M0 -4L3.5 -2L3.5 2L0 4L-3.5 2L-3.5 -2Z" fill="none" stroke="#1f252e" stroke-width="2"></path></g><g transform="translate(436 507)"><path d="M0 -2L1.7 -1L1.7 1L0 2L-1.7 1L-1.7 -1Z" fill="none" stroke="#1f252e" stroke-width="2"></path></g><g transform="translate(161 311)"><path d="M0 -11L9.5 -5.5L9.5 5.5L0 11L-9.5 5.5L-9.5 -5.5Z" fill="none" stroke="#1f252e" stroke-width="2"></path></g><g transform="translate(36 127)"><path d="M0 -9L7.8 -4.5L7.8 4.5L0 9L-7.8 4.5L-7.8 -4.5Z" fill="none" stroke="#1f252e" stroke-width="2"></path></g><g transform="translate(704 290)"><path d="M0 -10L8.7 -5L8.7 5L0 10L-8.7 5L-8.7 -5Z" fill="none" stroke="#1f252e" stroke-width="2"></path></g><g transform="translate(167 217)"><path d="M0 -5L4.3 -2.5L4.3 2.5L0 5L-4.3 2.5L-4.3 -2.5Z" fill="none" stroke="#1f252e" stroke-width="2"></path></g><g transform="translate(222 243)"><path d="M0 -7L6.1 -3.5L6.1 3.5L0 7L-6.1 3.5L-6.1 -3.5Z" fill="none" stroke="#1f252e" stroke-width="2"></path></g><g transform="translate(726 598)"><path d="M0 -4L3.5 -2L3.5 2L0 4L-3.5 2L-3.5 -2Z" fill="none" stroke="#1f252e" stroke-width="2"></path></g><g transform="translate(197 486)"><path d="M0 -4L3.5 -2L3.5 2L0 4L-3.5 2L-3.5 -2Z" fill="none" stroke="#1f252e" stroke-width="2"></path></g><g transform="translate(871 414)"><path d="M0 -7L6.1 -3.5L6.1 3.5L0 7L-6.1 3.5L-6.1 -3.5Z" fill="none" stroke="#1f252e" stroke-width="2"></path></g><g transform="translate(770 398)"><path d="M0 -10L8.7 -5L8.7 5L0 10L-8.7 5L-8.7 -5Z" fill="none" stroke="#1f252e" stroke-width="2"></path></g><g transform="translate(830 303)"><path d="M0 -5L4.3 -2.5L4.3 2.5L0 5L-4.3 2.5L-4.3 -2.5Z" fill="none" stroke="#1f252e" stroke-width="2"></path></g><g transform="translate(820 93)"><path d="M0 -8L6.9 -4L6.9 4L0 8L-6.9 4L-6.9 -4Z" fill="none" stroke="#1f252e" stroke-width="2"></path></g><g transform="translate(275 325)"><path d="M0 -9L7.8 -4.5L7.8 4.5L0 9L-7.8 4.5L-7.8 -4.5Z" fill="none" stroke="#1f252e" stroke-width="2"></path></g><g transform="translate(597 559)"><path d="M0 -11L9.5 -5.5L9.5 5.5L0 11L-9.5 5.5L-9.5 -5.5Z" fill="none" stroke="#1f252e" stroke-width="2"></path></g><g transform="translate(236 301)"><path d="M0 -10L8.7 -5L8.7 5L0 10L-8.7 5L-8.7 -5Z" fill="none" stroke="#1f252e" stroke-width="2"></path></g><g transform="translate(102 198)"><path d="M0 -8L6.9 -4L6.9 4L0 8L-6.9 4L-6.9 -4Z" fill="none" stroke="#1f252e" stroke-width="2"></path></g><g transform="translate(21 255)"><path d="M0 -2L1.7 -1L1.7 1L0 2L-1.7 1L-1.7 -1Z" fill="none" stroke="#1f252e" stroke-width="2"></path></g><g transform="translate(189 572)"><path d="M0 -3L2.6 -1.5L2.6 1.5L0 3L-2.6 1.5L-2.6 -1.5Z" fill="none" stroke="#1f252e" stroke-width="2"></path></g><g transform="translate(728 266)"><path d="M0 -6L5.2 -3L5.2 3L0 6L-5.2 3L-5.2 -3Z" fill="none" stroke="#1f252e" stroke-width="2"></path></g><g transform="translate(659 527)"><path d="M0 -11L9.5 -5.5L9.5 5.5L0 11L-9.5 5.5L-9.5 -5.5Z" fill="none" stroke="#1f252e" stroke-width="2"></path></g><g transform="translate(469 235)"><path d="M0 -1L0.9 -0.5L0.9 0.5L0 1L-0.9 0.5L-0.9 -0.5Z" fill="none" stroke="#1f252e" stroke-width="2"></path></g><g transform="translate(382 169)"><path d="M0 -9L7.8 -4.5L7.8 4.5L0 9L-7.8 4.5L-7.8 -4.5Z" fill="none" stroke="#1f252e" stroke-width="2"></path></g><g transform="translate(825 148)"><path d="M0 -6L5.2 -3L5.2 3L0 6L-5.2 3L-5.2 -3Z" fill="none" stroke="#1f252e" stroke-width="2"></path></g><g transform="translate(63 566)"><path d="M0 -3L2.6 -1.5L2.6 1.5L0 3L-2.6 1.5L-2.6 -1.5Z" fill="none" stroke="#1f252e" stroke-width="2"></path></g><g transform="translate(762 328)"><path d="M0 -9L7.8 -4.5L7.8 4.5L0 9L-7.8 4.5L-7.8 -4.5Z" fill="none" stroke="#1f252e" stroke-width="2"></path></g><g transform="translate(76 368)"><path d="M0 -3L2.6 -1.5L2.6 1.5L0 3L-2.6 1.5L-2.6 -1.5Z" fill="none" stroke="#1f252e" stroke-width="2"></path></g><g transform="translate(837 45)"><path d="M0 -7L6.1 -3.5L6.1 3.5L0 7L-6.1 3.5L-6.1 -3.5Z" fill="none" stroke="#1f252e" stroke-width="2"></path></g><g transform="translate(537 132)"><path d="M0 -2L1.7 -1L1.7 1L0 2L-1.7 1L-1.7 -1Z" fill="none" stroke="#1f252e" stroke-width="2"></path></g><g transform="translate(195 268)"><path d="M0 -10L8.7 -5L8.7 5L0 10L-8.7 5L-8.7 -5Z" fill="none" stroke="#1f252e" stroke-width="2"></path></g><g transform="translate(753 536)"><path d="M0 -1L0.9 -0.5L0.9 0.5L0 1L-0.9 0.5L-0.9 -0.5Z" fill="none" stroke="#1f252e" stroke-width="2"></path></g><g transform="translate(506 519)"><path d="M0 -6L5.2 -3L5.2 3L0 6L-5.2 3L-5.2 -3Z" fill="none" stroke="#1f252e" stroke-width="2"></path></g><g transform="translate(213 181)"><path d="M0 -4L3.5 -2L3.5 2L0 4L-3.5 2L-3.5 -2Z" fill="none" stroke="#1f252e" stroke-width="2"></path></g><g transform="translate(186 344)"><path d="M0 -8L6.9 -4L6.9 4L0 8L-6.9 4L-6.9 -4Z" fill="none" stroke="#1f252e" stroke-width="2"></path></g><g transform="translate(665 5)"><path d="M0 -5L4.3 -2.5L4.3 2.5L0 5L-4.3 2.5L-4.3 -2.5Z" fill="none" stroke="#1f252e" stroke-width="2"></path></g><g transform="translate(895 428)"><path d="M0 -11L9.5 -5.5L9.5 5.5L0 11L-9.5 5.5L-9.5 -5.5Z" fill="none" stroke="#1f252e" stroke-width="2"></path></g><g transform="translate(151 431)"><path d="M0 -10L8.7 -5L8.7 5L0 10L-8.7 5L-8.7 -5Z" fill="none" stroke="#1f252e" stroke-width="2"></path></g><g transform="translate(110 468)"><path d="M0 -6L5.2 -3L5.2 3L0 6L-5.2 3L-5.2 -3Z" fill="none" stroke="#1f252e" stroke-width="2"></path></g><g transform="translate(5 367)"><path d="M0 -5L4.3 -2.5L4.3 2.5L0 5L-4.3 2.5L-4.3 -2.5Z" fill="none" stroke="#1f252e" stroke-width="2"></path></g><g transform="translate(591 176)"><path d="M0 -10L8.7 -5L8.7 5L0 10L-8.7 5L-8.7 -5Z" fill="none" stroke="#1f252e" stroke-width="2"></path></g><g transform="translate(555 297)"><path d="M0 -8L6.9 -4L6.9 4L0 8L-6.9 4L-6.9 -4Z" fill="none" stroke="#1f252e" stroke-width="2"></path></g><g transform="translate(895 60)"><path d="M0 -10L8.7 -5L8.7 5L0 10L-8.7 5L-8.7 -5Z" fill="none" stroke="#1f252e" stroke-width="2"></path></g><g transform="translate(863 585)"><path d="M0 -4L3.5 -2L3.5 2L0 4L-3.5 2L-3.5 -2Z" fill="none" stroke="#1f252e" stroke-width="2"></path></g><g transform="translate(282 512)"><path d="M0 -4L3.5 -2L3.5 2L0 4L-3.5 2L-3.5 -2Z" fill="none" stroke="#1f252e" stroke-width="2"></path></g><g transform="translate(880 483)"><path d="M0 -10L8.7 -5L8.7 5L0 10L-8.7 5L-8.7 -5Z" fill="none" stroke="#1f252e" stroke-width="2"></path></g><g transform="translate(785 2)"><path d="M0 -4L3.5 -2L3.5 2L0 4L-3.5 2L-3.5 -2Z" fill="none" stroke="#1f252e" stroke-width="2"></path></g><g transform="translate(134 358)"><path d="M0 -7L6.1 -3.5L6.1 3.5L0 7L-6.1 3.5L-6.1 -3.5Z" fill="none" stroke="#1f252e" stroke-width="2"></path></g><g transform="translate(239 365)"><path d="M0 -1L0.9 -0.5L0.9 0.5L0 1L-0.9 0.5L-0.9 -0.5Z" fill="none" stroke="#1f252e" stroke-width="2"></path></g><g transform="translate(631 189)"><path d="M0 -12L10.4 -6L10.4 6L0 12L-10.4 6L-10.4 -6Z" fill="none" stroke="#1f252e" stroke-width="2"></path></g><g transform="translate(622 444)"><path d="M0 -9L7.8 -4.5L7.8 4.5L0 9L-7.8 4.5L-7.8 -4.5Z" fill="none" stroke="#1f252e" stroke-width="2"></path></g><g transform="translate(538 4)"><path d="M0 -8L6.9 -4L6.9 4L0 8L-6.9 4L-6.9 -4Z" fill="none" stroke="#1f252e" stroke-width="2"></path></g><g transform="translate(744 142)"><path d="M0 -7L6.1 -3.5L6.1 3.5L0 7L-6.1 3.5L-6.1 -3.5Z" fill="none" stroke="#1f252e" stroke-width="2"></path></g><g transform="translate(11 4)"><path d="M0 -3L2.6 -1.5L2.6 1.5L0 3L-2.6 1.5L-2.6 -1.5Z" fill="none" stroke="#1f252e" stroke-width="2"></path></g><g transform="translate(571 513)"><path d="M0 -11L9.5 -5.5L9.5 5.5L0 11L-9.5 5.5L-9.5 -5.5Z" fill="none" stroke="#1f252e" stroke-width="2"></path></g><g transform="translate(83 246)"><path d="M0 -5L4.3 -2.5L4.3 2.5L0 5L-4.3 2.5L-4.3 -2.5Z" fill="none" stroke="#1f252e" stroke-width="2"></path></g><g transform="translate(320 75)"><path d="M0 -1L0.9 -0.5L0.9 0.5L0 1L-0.9 0.5L-0.9 -0.5Z" fill="none" stroke="#1f252e" stroke-width="2"></path></g><g transform="translate(29 549)"><path d="M0 -2L1.7 -1L1.7 1L0 2L-1.7 1L-1.7 -1Z" fill="none" stroke="#1f252e" stroke-width="2"></path></g><g transform="translate(475 297)"><path d="M0 -2L1.7 -1L1.7 1L0 2L-1.7 1L-1.7 -1Z" fill="none" stroke="#1f252e" stroke-width="2"></path></g><g transform="translate(97 144)"><path d="M0 -11L9.5 -5.5L9.5 5.5L0 11L-9.5 5.5L-9.5 -5.5Z" fill="none" stroke="#1f252e" stroke-width="2"></path></g><g transform="translate(9 432)"><path d="M0 -10L8.7 -5L8.7 5L0 10L-8.7 5L-8.7 -5Z" fill="none" stroke="#1f252e" stroke-width="2"></path></g><g transform="translate(258 105)"><path d="M0 -6L5.2 -3L5.2 3L0 6L-5.2 3L-5.2 -3Z" stroke="#1f252e" fill="none" stroke-width="2"></path></g><g transform="translate(93 432)"><path d="M0 -10L8.7 -5L8.7 5L0 10L-8.7 5L-8.7 -5Z" stroke="#1f252e" fill="none" stroke-width="2"></path></g><g transform="translate(114 596)"><path d="M0 -2L1.7 -1L1.7 1L0 2L-1.7 1L-1.7 -1Z" stroke="#1f252e" fill="none" stroke-width="2"></path></g><g transform="translate(592 133)"><path d="M0 -9L7.8 -4.5L7.8 4.5L0 9L-7.8 4.5L-7.8 -4.5Z" stroke="#1f252e" fill="none" stroke-width="2"></path></g><g transform="translate(242 589)"><path d="M0 -2L1.7 -1L1.7 1L0 2L-1.7 1L-1.7 -1Z" stroke="#1f252e" fill="none" stroke-width="2"></path></g><g transform="translate(8 72)"><path d="M0 -2L1.7 -1L1.7 1L0 2L-1.7 1L-1.7 -1Z" stroke="#1f252e" fill="none" stroke-width="2"></path></g><g transform="translate(625 376)"><path d="M0 -1L0.9 -0.5L0.9 0.5L0 1L-0.9 0.5L-0.9 -0.5Z" stroke="#1f252e" fill="none" stroke-width="2"></path></g><g transform="translate(588 36)"><path d="M0 -7L6.1 -3.5L6.1 3.5L0 7L-6.1 3.5L-6.1 -3.5Z" stroke="#1f252e" fill="none" stroke-width="2"></path></g><g transform="translate(866 340)"><path d="M0 -1L0.9 -0.5L0.9 0.5L0 1L-0.9 0.5L-0.9 -0.5Z" stroke="#1f252e" fill="none" stroke-width="2"></path></g><g transform="translate(286 598)"><path d="M0 -10L8.7 -5L8.7 5L0 10L-8.7 5L-8.7 -5Z" stroke="#1f252e" fill="none" stroke-width="2"></path></g><g transform="translate(55 2)"><path d="M0 -10L8.7 -5L8.7 5L0 10L-8.7 5L-8.7 -5Z" stroke="#1f252e" fill="none" stroke-width="2"></path></g><g transform="translate(339 160)"><path d="M0 -12L10.4 -6L10.4 6L0 12L-10.4 6L-10.4 -6Z" stroke="#1f252e" fill="none" stroke-width="2"></path></g><g transform="translate(501 561)"><path d="M0 -8L6.9 -4L6.9 4L0 8L-6.9 4L-6.9 -4Z" stroke="#1f252e" fill="none" stroke-width="2"></path></g><g transform="translate(581 78)"><path d="M0 -12L10.4 -6L10.4 6L0 12L-10.4 6L-10.4 -6Z" stroke="#1f252e" fill="none" stroke-width="2"></path></g><g transform="translate(341 588)"><path d="M0 -9L7.8 -4.5L7.8 4.5L0 9L-7.8 4.5L-7.8 -4.5Z" stroke="#1f252e" fill="none" stroke-width="2"></path></g><g transform="translate(73 158)"><path d="M0 -3L2.6 -1.5L2.6 1.5L0 3L-2.6 1.5L-2.6 -1.5Z" stroke="#1f252e" fill="none" stroke-width="2"></path></g><g transform="translate(231 531)"><path d="M0 -3L2.6 -1.5L2.6 1.5L0 3L-2.6 1.5L-2.6 -1.5Z" stroke="#1f252e" fill="none" stroke-width="2"></path></g><g transform="translate(89 67)"><path d="M0 -8L6.9 -4L6.9 4L0 8L-6.9 4L-6.9 -4Z" stroke="#1f252e" fill="none" stroke-width="2"></path></g><g transform="translate(801 520)"><path d="M0 -4L3.5 -2L3.5 2L0 4L-3.5 2L-3.5 -2Z" stroke="#1f252e" fill="none" stroke-width="2"></path></g><g transform="translate(877 371)"><path d="M0 -8L6.9 -4L6.9 4L0 8L-6.9 4L-6.9 -4Z" stroke="#1f252e" fill="none" stroke-width="2"></path></g><g transform="translate(134 511)"><path d="M0 -1L0.9 -0.5L0.9 0.5L0 1L-0.9 0.5L-0.9 -0.5Z" stroke="#1f252e" fill="none" stroke-width="2"></path></g><g transform="translate(685 206)"><path d="M0 -8L6.9 -4L6.9 4L0 8L-6.9 4L-6.9 -4Z" stroke="#1f252e" fill="none" stroke-width="2"></path></g><g transform="translate(518 436)"><path d="M0 -2L1.7 -1L1.7 1L0 2L-1.7 1L-1.7 -1Z" stroke="#1f252e" fill="none" stroke-width="2"></path></g><g transform="translate(881 540)"><path d="M0 -6L5.2 -3L5.2 3L0 6L-5.2 3L-5.2 -3Z" stroke="#1f252e" fill="none" stroke-width="2"></path></g><g transform="translate(820 6)"><path d="M0 -6L5.2 -3L5.2 3L0 6L-5.2 3L-5.2 -3Z" stroke="#1f252e" fill="none" stroke-width="2"></path></g><g transform="translate(28 355)"><path d="M0 -8L6.9 -4L6.9 4L0 8L-6.9 4L-6.9 -4Z" stroke="#1f252e" fill="none" stroke-width="2"></path></g><g transform="translate(845 496)"><path d="M0 -6L5.2 -3L5.2 3L0 6L-5.2 3L-5.2 -3Z" stroke="#1f252e" fill="none" stroke-width="2"></path></g><g transform="translate(673 297)"><path d="M0 -7L6.1 -3.5L6.1 3.5L0 7L-6.1 3.5L-6.1 -3.5Z" stroke="#1f252e" fill="none" stroke-width="2"></path></g><g transform="translate(661 381)"><path d="M0 -6L5.2 -3L5.2 3L0 6L-5.2 3L-5.2 -3Z" stroke="#1f252e" fill="none" stroke-width="2"></path></g><g transform="translate(544 559)"><path d="M0 -5L4.3 -2.5L4.3 2.5L0 5L-4.3 2.5L-4.3 -2.5Z" stroke="#1f252e" fill="none" stroke-width="2"></path></g><g transform="translate(393 388)"><path d="M0 -6L5.2 -3L5.2 3L0 6L-5.2 3L-5.2 -3Z" stroke="#1f252e" fill="none" stroke-width="2"></path></g><g transform="translate(859 248)"><path d="M0 -12L10.4 -6L10.4 6L0 12L-10.4 6L-10.4 -6Z" stroke="#1f252e" fill="none" stroke-width="2"></path></g><g transform="translate(242 48)"><path d="M0 -1L0.9 -0.5L0.9 0.5L0 1L-0.9 0.5L-0.9 -0.5Z" stroke="#1f252e" fill="none" stroke-width="2"></path></g><g transform="translate(599 389)"><path d="M0 -8L6.9 -4L6.9 4L0 8L-6.9 4L-6.9 -4Z" stroke="#1f252e" fill="none" stroke-width="2"></path></g><g transform="translate(430 405)"><path d="M0 -2L1.7 -1L1.7 1L0 2L-1.7 1L-1.7 -1Z" stroke="#1f252e" fill="none" stroke-width="2"></path></g><g transform="translate(591 435)"><path d="M0 -11L9.5 -5.5L9.5 5.5L0 11L-9.5 5.5L-9.5 -5.5Z" stroke="#1f252e" fill="none" stroke-width="2"></path></g><g transform="translate(821 577)"><path d="M0 -11L9.5 -5.5L9.5 5.5L0 11L-9.5 5.5L-9.5 -5.5Z" stroke="#1f252e" fill="none" stroke-width="2"></path></g><g transform="translate(697 422)"><path d="M0 -9L7.8 -4.5L7.8 4.5L0 9L-7.8 4.5L-7.8 -4.5Z" stroke="#1f252e" fill="none" stroke-width="2"></path></g><g transform="translate(433 598)"><path d="M0 -11L9.5 -5.5L9.5 5.5L0 11L-9.5 5.5L-9.5 -5.5Z" stroke="#1f252e" fill="none" stroke-width="2"></path></g><g transform="translate(799 408)"><path d="M0 -2L1.7 -1L1.7 1L0 2L-1.7 1L-1.7 -1Z" stroke="#1f252e" fill="none" stroke-width="2"></path></g><g transform="translate(362 338)"><path d="M0 -9L7.8 -4.5L7.8 4.5L0 9L-7.8 4.5L-7.8 -4.5Z" stroke="#1f252e" fill="none" stroke-width="2"></path></g></g></svg>